<?xml version="1.0" encoding="UTF-8"?>
<svg version="1.1" xmlns="http://www.w3.org/2000/svg" width="512" height="512">
<path d="M0 0 C0.9379935 -0.00226556 1.875987 -0.00453111 2.84240454 -0.00686532 C5.9812679 -0.01318866 9.12008789 -0.01237702 12.25895691 -0.0115509 C14.51122086 -0.01454343 16.7634843 -0.01794618 19.01574707 -0.02172852 C25.13150624 -0.03056317 31.24725143 -0.03290641 37.36301637 -0.0335443 C41.18468703 -0.03425511 45.00635413 -0.03639001 48.82802391 -0.03904152 C61.47461825 -0.04781573 74.12120238 -0.05246145 86.76779894 -0.05171105 C87.44905099 -0.05167109 88.13030304 -0.05163113 88.8321991 -0.05158997 C89.85533049 -0.05152864 89.85533049 -0.05152864 90.8991312 -0.05146609 C101.95044455 -0.05105973 113.00172382 -0.06062746 124.05302731 -0.07472833 C135.41101888 -0.08910572 146.76898867 -0.09581479 158.12699145 -0.09513456 C164.49937795 -0.09487968 170.87172587 -0.09772513 177.24410439 -0.10831261 C183.23836209 -0.11799995 189.23254436 -0.11806833 195.22680473 -0.11079597 C197.4241713 -0.10975093 199.62154257 -0.11210825 201.81890106 -0.11815643 C204.82393579 -0.12589062 207.82871097 -0.121222 210.83374023 -0.11352539 C212.13065496 -0.12124074 212.13065496 -0.12124074 213.45376998 -0.12911195 C224.35134016 -0.06765047 233.63948036 2.38100777 241.66593933 10.11808777 C247.07854751 16.4346124 250.86085413 23.71439534 254.79484558 30.99308777 C257.81898179 36.57045898 261.01854857 42.03905152 264.23234558 47.50871277 C269.41632077 56.35062601 274.5342289 65.22793757 279.60734558 74.13371277 C285.14686397 83.85514982 290.74109752 93.54266594 296.39079285 103.2006073 C302.545013 113.72455902 308.63104554 124.28751414 314.7162323 134.85148621 C317.22072375 139.19829528 319.72774623 143.54364149 322.23503113 147.88883972 C323.48279633 150.05131818 324.73035508 152.21391577 325.97770691 154.37663269 C329.1245615 159.83263088 332.27383632 165.28720734 335.42765808 170.73918152 C339.16329929 177.19881733 342.88801803 183.66467242 346.60734558 190.13371277 C347.54199646 191.75623962 347.54199646 191.75623962 348.49552917 193.4115448 C350.30963351 196.56554272 352.11590033 199.72389571 353.91984558 202.88371277 C354.46528015 203.83012634 355.01071472 204.77653992 355.57267761 205.75163269 C359.60902514 212.85179964 361.9663543 218.60022985 361.98234558 226.88371277 C362.01070496 228.19855652 362.03906433 229.51340027 362.06828308 230.86808777 C361.45639218 240.89512757 355.15223893 249.82067934 350.23234558 258.25871277 C349.51639677 259.49782415 348.80099262 260.73725037 348.08610535 261.97697449 C345.93557915 265.70118197 343.77249871 269.41799592 341.60734558 273.13371277 C340.98940125 274.19590027 340.37145691 275.25808777 339.73478699 276.35246277 C336.86223474 281.28819606 333.9829079 286.21992051 331.09953308 291.14933777 C325.52305402 300.6919421 320.01523067 310.2742907 314.49845886 319.85148621 C311.3705441 325.28031219 308.2387611 330.70690558 305.10734558 336.13371277 C303.85732679 338.30036859 302.6073268 340.46703526 301.35734558 342.63371277 C293.85734558 355.63371277 286.35734558 368.63371277 278.85734558 381.63371277 C278.23803162 382.70726013 277.61871765 383.7808075 276.9806366 384.8868866 C275.73657766 387.04311489 274.49227616 389.19920326 273.24772644 391.35514832 C270.02977767 396.93036791 266.81666394 402.50830772 263.61125183 408.09074402 C249.35081783 432.91069821 249.35081783 432.91069821 244.60734558 440.13371277 C244.20000183 440.75632996 243.79265808 441.37894714 243.37297058 442.02043152 C237.88866477 449.47683359 229.38818392 452.67210026 220.60734558 454.13371277 C217.34991853 454.39124371 214.1135999 454.40456154 210.84719849 454.38768005 C209.90593615 454.39080003 208.96467381 454.39392002 207.99488837 454.39713454 C204.86295686 454.40506719 201.73122165 454.39880943 198.59928894 454.39250183 C196.34495938 454.39521377 194.09063071 454.39877585 191.83630371 454.40312195 C185.72903409 454.41222345 179.62183219 454.40871103 173.51456141 454.40236378 C167.11747352 454.39729284 160.72039135 454.40199822 154.32330322 454.40513611 C142.89507289 454.40900505 131.46688 454.40279864 120.038656 454.39261743 C109.68678145 454.38368053 99.33495175 454.38523676 88.983078 454.39445496 C76.94590962 454.40516895 64.9087751 454.40913634 52.87160021 454.40323043 C46.50544283 454.40011472 40.13931632 454.39969053 33.77316093 454.40630341 C27.78870891 454.41208586 21.8043415 454.40806339 15.81989861 454.39651489 C13.62533712 454.39387326 11.4307685 454.39462491 9.23620987 454.39904022 C6.23754718 454.40451657 3.23915459 454.3976361 0.24050903 454.38768005 C-0.62496727 454.3921415 -1.49044356 454.39660294 -2.38214642 454.40119958 C-12.50075991 454.33617218 -22.18887777 451.61627447 -29.91242981 444.78166199 C-36.28685942 437.68494421 -40.67940238 428.31559873 -45.39265442 420.07121277 C-46.37837053 418.35482597 -47.36409072 416.63844149 -48.35005188 414.92219543 C-49.36371266 413.15703702 -50.37630574 411.39126944 -51.38874817 409.62541199 C-54.5455818 404.12176197 -57.72020561 398.62837075 -60.89265442 393.13371277 C-62.14273435 390.96709222 -63.39273418 388.80042545 -64.64265442 386.63371277 C-65.26140442 385.56121277 -65.88015442 384.48871277 -66.51765442 383.38371277 C-83.39265442 354.13371277 -100.26765442 324.88371277 -117.14265442 295.63371277 C-117.76212952 294.56000427 -118.38160461 293.48629578 -119.01985168 292.38005066 C-120.26269675 290.22568867 -121.50537409 288.07122992 -122.74787903 285.91667175 C-125.64061379 280.90100312 -128.53486188 275.88623046 -131.43540955 270.87507629 C-132.45283147 269.11713208 -133.46969903 267.35886835 -134.48640442 265.60050964 C-135.75484252 263.40716876 -137.02429544 261.2144143 -138.29499817 259.02238464 C-141.1530742 254.07791311 -143.9863915 249.12012396 -146.76374817 244.12980652 C-147.24642151 243.26412048 -147.72909485 242.39843445 -148.22639465 241.5065155 C-150.47867103 236.92416797 -150.63390377 232.55325891 -150.70515442 227.50871277 C-150.74866028 226.51677917 -150.74866028 226.51677917 -150.79304504 225.50480652 C-150.93002455 214.52537237 -144.36320998 205.1767929 -139.01765442 196.00871277 C-138.30170561 194.76960139 -137.58630146 193.53017517 -136.87141418 192.29045105 C-134.72088799 188.56624356 -132.55780754 184.84942961 -130.39265442 181.13371277 C-129.77471008 180.07152527 -129.15676575 179.00933777 -128.52009583 177.91496277 C-125.64754358 172.97922948 -122.76821674 168.04750503 -119.88484192 163.11808777 C-114.30836285 153.57548344 -108.80053951 143.99313484 -103.2837677 134.41593933 C-100.15585294 128.98711335 -97.02406994 123.56051996 -93.89265442 118.13371277 C-92.64263563 115.96705694 -91.39263563 113.80039027 -90.14265442 111.63371277 C-82.64265442 98.63371277 -75.14265442 85.63371277 -67.64265442 72.63371277 C-67.02334045 71.56016541 -66.40402649 70.48661804 -65.76594543 69.38053894 C-64.5218865 67.22431064 -63.277585 65.06822228 -62.03303528 62.91227722 C-58.81508651 57.33705763 -55.60197278 51.75911782 -52.39656067 46.17668152 C-28.98263354 5.42528512 -28.98263354 5.42528512 -15.39265442 1.13371277 C-10.23004195 0.04830511 -5.24784489 -0.00932722 0 0 Z " fill="#4386F9" transform="translate(150.3926544189453,28.866287231445313)"/>
<path d="M0 0 C5.60072436 4.66102363 10.76715274 9.63637347 15.90112305 14.8034668 C17.19512024 16.09965439 17.19512024 16.09965439 18.51525879 17.42202759 C20.37806204 19.28862117 22.23994025 21.15608445 24.10028648 23.02512169 C27.04379542 25.98224189 29.99119457 28.93546442 32.93916321 31.88813782 C39.19158932 38.15162156 45.4397574 44.41934503 51.6875 50.6875 C58.44434577 57.46639485 65.2019344 64.24453949 71.96440536 71.01782352 C74.89340453 73.95179604 77.81995049 76.88818702 80.74462354 79.82647169 C82.99012553 82.08119293 85.23885974 84.33268704 87.48706055 86.5847168 C88.29389786 87.39672043 89.10073517 88.20872406 89.93202209 89.04533386 C90.67626434 89.78964661 91.42050659 90.53395935 92.18730164 91.30082703 C93.15260819 92.2694645 93.15260819 92.2694645 94.13741589 93.2576704 C95.98996062 95.06584092 95.98996062 95.06584092 98.23829365 96.60619831 C98.81965674 97.06615287 99.40101984 97.52610743 100 98 C100 98.66 100 99.32 100 100 C100.58025436 100.25690109 101.16050873 100.51380219 101.75834656 100.77848816 C104.20792619 102.11330222 105.87482608 103.59431091 107.86645508 105.54418945 C108.61014847 106.26866776 109.35384186 106.99314606 110.12007141 107.73957825 C110.91189316 108.52290024 111.7037149 109.30622223 112.51953125 110.11328125 C113.3374968 110.91984665 114.15546234 111.72641205 114.99821472 112.55741882 C116.72322113 114.26354849 118.44534819 115.97259357 120.16479492 117.68432617 C122.8061204 120.30616746 125.46798255 122.90593356 128.13085938 125.50585938 C129.80339702 127.16534369 131.47466538 128.82610847 133.14453125 130.48828125 C133.94647415 131.26553055 134.74841705 132.04277985 135.57466125 132.84358215 C136.66656013 133.94448433 136.66656013 133.94448433 137.78051758 135.06762695 C138.4279744 135.70779251 139.07543121 136.34795807 139.74250793 137.00752258 C141 139 141 139 140.81108093 141.53996277 C139.65394155 145.04960755 137.79754764 148.05737686 135.875 151.1875 C134.95830195 152.71274102 134.0430296 154.23883949 133.12890625 155.765625 C132.62762207 156.60029297 132.12633789 157.43496094 131.60986328 158.29492188 C128.62429981 163.31161026 125.72321379 168.37714446 122.8125 173.4375 C121.51697859 175.68622759 120.22140498 177.93492511 118.92578125 180.18359375 C118.27561035 181.31265137 117.62543945 182.44170898 116.95556641 183.60498047 C113.80667946 189.0716998 110.65316736 194.53574887 107.5 200 C106.2499765 202.16665311 104.99997653 204.33331979 103.75 206.5 C101.25 210.83333333 98.75 215.16666667 96.25 219.5 C95.63068604 220.5737085 95.01137207 221.64741699 94.37329102 222.75366211 C93.12979621 224.90858853 91.88549965 227.06305252 90.64038086 229.21704102 C87.74822829 234.22250019 84.86345897 239.2316963 82.00881958 244.25863647 C81.00921832 246.01799419 80.00695802 247.77581069 79.00390625 249.53320312 C77.75515312 251.72291813 76.51125733 253.91541413 75.2734375 256.11132812 C67.70618686 269.34976549 60.73239991 280.12428839 45.59276772 284.73275566 C37.08917753 286.67160643 27.85080762 287.34264472 20.03301144 282.8762331 C8.70092185 275.13632338 -0.68830114 264.45085329 -10.11788988 254.58421564 C-14.09354906 250.45225459 -18.14333154 246.39419499 -22.18515015 242.32711792 C-28.9465287 235.50350247 -35.65959339 228.63543118 -42.33935547 221.73193359 C-51.77186708 211.98349242 -61.28365102 202.31551505 -70.81502652 192.66383958 C-83.56983609 179.7415971 -96.2982571 166.79279441 -108.94101715 153.76082611 C-110.31003481 152.35066004 -111.68070667 150.94209785 -113.0531044 149.5352211 C-114.91776159 147.62261529 -116.77593621 145.7039501 -118.63223267 143.78323364 C-119.182576 143.22098087 -119.73291934 142.65872811 -120.29993975 142.07943738 C-124 138.22901136 -124 138.22901136 -124 136 C-118.46842957 137.74637193 -113.29594727 140.06210329 -108.0234375 142.46484375 C-97.75269811 146.61724288 -87.93913753 147.4509202 -76.9375 147.3125 C-75.01067383 147.31733398 -75.01067383 147.31733398 -73.04492188 147.32226562 C-51.99327332 147.20417887 -35.75959107 139.68895363 -18 129 C-17.56231293 129.45323135 -17.12462585 129.90646271 -16.67367554 130.37342834 C-12.11991459 135.08190367 -7.54181336 139.76567252 -2.94873047 144.43579102 C-1.23726543 146.18248541 0.46786809 147.9354069 2.16650391 149.69458008 C4.60767763 152.22054647 7.07065967 154.72332803 9.5390625 157.22265625 C10.29555084 158.01527359 11.05203918 158.80789093 11.83145142 159.62452698 C15.86271077 163.90860517 15.86271077 163.90860517 21.35327148 165.11572266 C24.73468452 163.69029534 26.83623492 161.89830437 29.4375 159.3125 C30.32308594 158.46300781 31.20867187 157.61351562 32.12109375 156.73828125 C34.2293865 154.18780388 34.2293865 154.18780388 34.10205078 151.34399414 C32.43614478 146.2890729 29.02027601 143.40391024 25.24609375 139.7578125 C24.47064713 138.98944061 23.6952005 138.22106873 22.89625549 137.42941284 C20.42150652 134.98260893 17.92992888 132.55377911 15.4375 130.125 C13.75471967 128.46730198 12.07306494 126.80846052 10.39257812 125.1484375 C6.27467849 121.08560905 2.14283123 117.03739438 -2 113 C-1.49509789 112.09310677 -1.49509789 112.09310677 -0.97999573 111.16789246 C-0.31229408 109.96753105 -0.31229408 109.96753105 0.36889648 108.74291992 C0.80862289 107.95269943 1.2483493 107.16247894 1.70140076 106.34831238 C14.75262121 82.74723398 20.98001422 56.68447618 13.3359375 30.0078125 C10.15593816 20.03662814 5.76482163 10.73457823 0 2 C0 1.34 0 0.68 0 0 Z " fill="#3C79E1" transform="translate(329,198)"/>
<path d="M0 0 C0.6511377 0.24669434 1.30227539 0.49338867 1.97314453 0.74755859 C26.03392165 10.0288766 44.43789104 26.69684622 55.3125 50.06640625 C57.73932035 55.55493967 59.5470477 61.18099798 61 67 C61.17660156 67.65468262 61.35320312 68.30936523 61.53515625 68.98388672 C63.07374196 75.10685769 63.31165149 80.9547557 63.25 87.25 C63.24178223 88.26779541 63.23356445 89.28559082 63.22509766 90.33422852 C62.95610322 108.46242852 58.18610297 123.44133869 49 139 C47.66202938 141.33069786 46.33176464 143.66574569 45 146 C45.43626205 146.425159 45.87252411 146.85031799 46.32200623 147.2883606 C50.86267847 151.71836224 55.38561082 156.16590964 59.89868164 160.62402344 C61.58495426 162.28516169 63.27568851 163.94178348 64.97094727 165.59375 C67.40789678 167.97000784 69.8283043 170.36208159 72.24609375 172.7578125 C73.00651474 173.49242706 73.76693573 174.22704163 74.55039978 174.98391724 C77.62137666 178.05323884 79.72169735 180.16929399 81.11572266 184.33032227 C80.94268288 188.32228423 78.71388379 190.23417671 75.9375 192.8125 C75.21916992 193.54629883 75.21916992 193.54629883 74.48632812 194.29492188 C72.27564184 196.4345821 70.17018676 197.92775223 67.33959961 199.12939453 C61.82753054 198.91582654 59.20308147 195.06166448 55.5390625 191.22265625 C54.74849457 190.42218369 53.95792664 189.62171112 53.1434021 188.79698181 C50.6203905 186.23476413 48.12277994 183.64929784 45.625 181.0625 C43.9195862 179.3219814 42.21257331 177.5830281 40.50390625 175.84570312 C36.31720796 171.58179635 32.15111536 167.29854055 28 163 C26.91589844 163.6194751 25.83179688 164.2389502 24.71484375 164.87719727 C23.80013306 165.39987938 23.80013306 165.39987938 22.86694336 165.93312073 C21.09872985 166.94358006 19.33061209 167.95420695 17.5625 168.96484375 C-3.92926891 180.97900642 -30.12337466 185.41948274 -54.375 179.5 C-62.30684477 176.85916227 -69.70210387 173.0355188 -77 169 C-78.44826172 168.23429687 -78.44826172 168.23429687 -79.92578125 167.453125 C-101.0617802 155.30383968 -114.6680461 132.99345471 -121 110 C-126.46564402 86.16114586 -122.33559881 61.97541306 -110 41 C-109.4946875 40.13246094 -108.989375 39.26492187 -108.46875 38.37109375 C-96.53973363 19.31780372 -78.11325079 5.98860396 -57 -1 C-55.7625 -1.4125 -54.525 -1.825 -53.25 -2.25 C-36.50493126 -6.11424663 -16.09379575 -6.19273185 0 0 Z " fill="#4487FA" transform="translate(283,165)"/>
<path d="M0 0 C0.6511377 0.24669434 1.30227539 0.49338867 1.97314453 0.74755859 C26.03392165 10.0288766 44.43789104 26.69684622 55.3125 50.06640625 C57.73932035 55.55493967 59.5470477 61.18099798 61 67 C61.17660156 67.65468262 61.35320312 68.30936523 61.53515625 68.98388672 C63.07374196 75.10685769 63.31165149 80.9547557 63.25 87.25 C63.24178223 88.26779541 63.23356445 89.28559082 63.22509766 90.33422852 C62.95610322 108.46242852 58.18610297 123.44133869 49 139 C47.66202938 141.33069786 46.33176464 143.66574569 45 146 C45.43626205 146.425159 45.87252411 146.85031799 46.32200623 147.2883606 C50.86267847 151.71836224 55.38561082 156.16590964 59.89868164 160.62402344 C61.58495426 162.28516169 63.27568851 163.94178348 64.97094727 165.59375 C67.40789678 167.97000784 69.8283043 170.36208159 72.24609375 172.7578125 C73.00651474 173.49242706 73.76693573 174.22704163 74.55039978 174.98391724 C77.62137666 178.05323884 79.72169735 180.16929399 81.11572266 184.33032227 C80.94268288 188.32228423 78.71388379 190.23417671 75.9375 192.8125 C75.21916992 193.54629883 75.21916992 193.54629883 74.48632812 194.29492188 C72.27564184 196.4345821 70.17018676 197.92775223 67.33959961 199.12939453 C61.82753054 198.91582654 59.20308147 195.06166448 55.5390625 191.22265625 C54.74849457 190.42218369 53.95792664 189.62171112 53.1434021 188.79698181 C50.6203905 186.23476413 48.12277994 183.64929784 45.625 181.0625 C43.9195862 179.3219814 42.21257331 177.5830281 40.50390625 175.84570312 C36.31720796 171.58179635 32.15111536 167.29854055 28 163 C26.91589844 163.6194751 25.83179688 164.2389502 24.71484375 164.87719727 C23.80013306 165.39987938 23.80013306 165.39987938 22.86694336 165.93312073 C21.09872985 166.94358006 19.33061209 167.95420695 17.5625 168.96484375 C-3.92926891 180.97900642 -30.12337466 185.41948274 -54.375 179.5 C-62.30684477 176.85916227 -69.70210387 173.0355188 -77 169 C-78.44826172 168.23429687 -78.44826172 168.23429687 -79.92578125 167.453125 C-101.0617802 155.30383968 -114.6680461 132.99345471 -121 110 C-126.46564402 86.16114586 -122.33559881 61.97541306 -110 41 C-109.4946875 40.13246094 -108.989375 39.26492187 -108.46875 38.37109375 C-96.53973363 19.31780372 -78.11325079 5.98860396 -57 -1 C-55.7625 -1.4125 -54.525 -1.825 -53.25 -2.25 C-36.50493126 -6.11424663 -16.09379575 -6.19273185 0 0 Z M-84.390625 43.734375 C-96.61006881 59.87150309 -101.97110557 77.93095356 -100 98 C-97.22664402 117.40438393 -86.25629706 134.07477217 -71 146 C-55.26724281 156.99744068 -36.17535343 161.4411173 -17.1875 158.38671875 C2.43114536 153.66909958 18.84182861 143.04928648 30 126 C39.95741159 107.42341665 43.39168963 87.22529004 37.3203125 66.78515625 C31.38229086 48.83883124 18.32583264 34.60986948 1.8046875 25.8671875 C-27.94251403 10.9250448 -62.67687362 18.89838486 -84.390625 43.734375 Z " fill="#FDFDFE" transform="translate(283,165)"/>
<path d="M0 0 C6.27 0 12.54 0 19 0 C19 25.74 19 51.48 19 78 C15.82606311 79.58696844 12.41825795 79.1431447 8.9375 79.125 C8.19177734 79.12886719 7.44605469 79.13273437 6.67773438 79.13671875 C1.12663501 79.12663501 1.12663501 79.12663501 0 78 C-0.09498646 75.56603981 -0.12558417 73.16057048 -0.11352539 70.72631836 C-0.11367142 69.96539383 -0.11381744 69.2044693 -0.1139679 68.42048645 C-0.11326862 65.89357702 -0.10547555 63.36674038 -0.09765625 60.83984375 C-0.09579212 59.0924941 -0.0943682 57.34514393 -0.09336853 55.59779358 C-0.08954293 50.98968066 -0.07971229 46.38159905 -0.06866455 41.77349854 C-0.05845134 37.07491479 -0.0538711 32.37632601 -0.04882812 27.67773438 C-0.03809005 18.45180692 -0.02049292 9.22591096 0 0 Z " fill="#FAFCFE" transform="translate(243,226)"/>
<path d="M0 0 C6.27 0 12.54 0 19 0 C19 15.84 19 31.68 19 48 C11.24070662 42.82713774 3.852847 37.80856765 0 29 C-0.7048946 23.95099582 -0.57048355 19.02257844 -0.375 13.9375 C-0.34484011 12.58143992 -0.31747497 11.22531466 -0.29296875 9.86914062 C-0.22271083 6.57872792 -0.11510956 3.28914909 0 0 Z " fill="#FBFCFE" transform="translate(208,250)"/>
<path d="M0 0 C5.94 0 11.88 0 18 0 C18.80357143 18.21428571 18.80357143 18.21428571 15.4375 22.6875 C14.32942239 23.82955169 13.18200285 24.93464217 12 26 C11.4121875 26.64324219 10.824375 27.28648437 10.21875 27.94921875 C6.78647232 31.65999264 4.91825835 33.03269666 0 35 C0 23.45 0 11.9 0 0 Z " fill="#FEFEFE" transform="translate(279,262)"/>
</svg>
