<?xml version="1.0" encoding="UTF-8"?>
<svg version="1.1" xmlns="http://www.w3.org/2000/svg" width="1545" height="1663">
<path d="M0 0 C2.04110944 0.98037266 4.04665835 2.03626886 6.0234375 3.140625 C6.5975235 3.45898315 7.1716095 3.77734131 7.76309204 4.10534668 C9.63746331 5.14701696 11.5062332 6.19831357 13.375 7.25 C14.68330526 7.98000946 15.99190237 8.7094961 17.30078125 9.43847656 C20.59178343 11.27396582 23.8779463 13.11790937 27.1619873 14.96582031 C28.86422201 15.9236029 30.56732749 16.87983747 32.27050781 17.8359375 C40.64053563 22.53680074 48.99215937 27.26928963 57.31640625 32.05078125 C66.16128348 37.12985514 75.03270671 42.13962279 84 47 C93.85670622 52.34244936 103.59287229 57.87704469 113.31396484 63.46142578 C127.04301851 71.3254956 140.85434334 79.04612317 154.66308594 86.76904297 C161.6190939 90.66117207 168.56350165 94.57321831 175.5 98.5 C187.64410093 105.37372397 199.82062923 112.18901937 212 119 C229.89609219 129.00790103 247.76463401 139.06279651 265.6015625 149.17578125 C277.01904936 155.64476656 288.47069084 162.04868564 299.94775391 168.41137695 C308.13522382 172.95406071 316.29532376 177.54290444 324.44189453 182.15844727 C331.40866783 186.10443826 338.38803206 190.0273819 345.375 193.9375 C346.40616943 194.51459717 347.43733887 195.09169434 348.49975586 195.6862793 C352.76974227 198.07533154 357.04025426 200.46344255 361.31103516 202.85107422 C363.52927533 204.09130019 365.74737484 205.33177779 367.96533203 206.57250977 C370.02718515 207.72591646 372.08933175 208.87879878 374.15185547 210.03100586 C378.81128668 212.63772194 383.46077298 215.25973472 388.09141541 217.91732788 C395.11808849 221.9498137 402.1990325 225.87227511 409.30865479 229.75665283 C419.46293003 235.30995871 429.52905883 240.96188619 439.39501953 247.01855469 C445.15786955 250.54999813 451.04842496 253.79828956 457 257 C458.69307859 257.91728568 460.38579467 258.83524082 462.078125 259.75390625 C462.91714355 260.20918701 463.75616211 260.66446777 464.62060547 261.13354492 C476.30193667 267.48181154 487.8886694 273.98758506 499.44921875 280.55273438 C502.92013659 282.52206831 506.3963695 284.48182922 509.875 286.4375 C510.49028564 286.78353271 511.10557129 287.12956543 511.73950195 287.48608398 C515.73398997 289.73087444 519.73178378 291.96972621 523.73046875 294.20703125 C535.06222066 300.54727901 546.38645204 306.8999755 557.68579102 313.29785156 C565.78157233 317.88143095 573.89133677 322.43887693 582 327 C582 339.87 582 352.74 582 366 C578.32875 367.98 574.6575 369.96 570.875 372 C563.90098696 375.77009234 556.93544415 379.5480324 550.0625 383.5 C549.00289062 384.10585938 547.94328125 384.71171875 546.8515625 385.3359375 C544.99694411 386.41822165 543.15715432 387.52646959 541.3359375 388.6640625 C540.54445313 389.14617187 539.75296875 389.62828125 538.9375 390.125 C538.28652344 390.54007812 537.63554688 390.95515625 536.96484375 391.3828125 C533.38245097 392.50809691 530.6575276 390.33079949 527.4765625 388.73046875 C519.19334741 384.24845511 510.99388397 379.62494776 502.80102539 374.98022461 C496.73652519 371.54260666 490.66031658 368.12815826 484.5625 364.75 C471.49906476 357.51043985 458.50179336 350.15460334 445.50048828 342.80419922 C434.49854124 336.58475721 423.49150535 330.37652134 412.4375 324.25 C401.58698589 318.23399011 390.79542337 312.1141271 380 306 C361.79746241 295.69339869 343.58685713 285.39962982 325.27880859 275.28125 C316.38953394 270.36651678 307.57151552 265.33088991 298.75976562 260.27896118 C288.8166763 254.58122642 278.82177385 248.98462668 268.79516602 243.43481445 C260.73410508 238.97108651 252.70584548 234.45266362 244.69091797 229.90673828 C237.42214724 225.78981269 230.12124029 221.73295924 222.8125 217.6875 C213.49938259 212.53012148 204.23336423 207.29816633 195 202 C182.49419806 194.824857 169.90414946 187.80874084 157.29052734 180.82470703 C143.50423626 173.17974935 129.76396602 165.45661439 116.09228516 157.60864258 C108.93029033 153.50805212 101.71966479 149.49800816 94.5 145.5 C85.57793848 140.55926165 76.69160046 135.56432922 67.84716797 130.48608398 C61.1308668 126.63414445 54.38351863 122.83982263 47.625 119.0625 C39.34417045 114.43420704 31.07168795 109.79181298 22.8125 105.125 C21.38707886 104.32243774 21.38707886 104.32243774 19.93286133 103.50366211 C15.79372589 101.16896116 11.66950003 98.81894605 7.59375 96.375 C6.6195813 95.79661377 6.6195813 95.79661377 5.62573242 95.20654297 C3.95942492 94.21263665 2.30154355 93.20463935 0.64453125 92.1953125 C-2.40080194 90.81883989 -2.94998283 90.964265 -6 92 C-7.48668823 92.71124184 -8.95036606 93.47158864 -10.39453125 94.265625 C-11.2553833 94.73661621 -12.11623535 95.20760742 -13.00317383 95.69287109 C-14.39379028 96.4636499 -14.39379028 96.4636499 -15.8125 97.25 C-16.78662842 97.7857666 -17.76075684 98.3215332 -18.7644043 98.87353516 C-27.57673102 103.73390214 -36.33700065 108.68590485 -45.08984375 113.65234375 C-51.1727931 117.10242007 -57.272037 120.52297898 -63.375 123.9375 C-64.41229248 124.51798096 -65.44958496 125.09846191 -66.51831055 125.6965332 C-70.73387774 128.05512298 -74.94995893 130.41279319 -79.16601562 132.77050781 C-82.31924091 134.53409366 -85.47222004 136.29811817 -88.625 138.0625 C-89.66269531 138.64322266 -90.70039062 139.22394531 -91.76953125 139.82226562 C-98.64877573 143.67515912 -105.51478926 147.55083988 -112.375 151.4375 C-121.82319388 156.7886461 -131.3079027 162.07212321 -140.80322266 167.33911133 C-156.36459412 175.97211009 -171.89101609 184.66645823 -187.375 193.4375 C-196.87127017 198.81674754 -206.40706507 204.12264765 -215.95263672 209.41381836 C-223.15427862 213.40919352 -230.33592313 217.43768826 -237.5 221.5 C-245.80881332 226.21142208 -254.14596811 230.86924314 -262.5 235.5 C-270.93483559 240.17658661 -279.35621974 244.87508159 -287.75 249.625 C-288.68400635 250.15351563 -289.6180127 250.68203125 -290.58032227 251.2265625 C-295.28946394 253.89345561 -299.99536437 256.56598127 -304.69921875 259.2421875 C-314.53614366 264.83062611 -324.41043512 270.32947863 -334.375 275.6875 C-341.77403218 279.66743388 -349.08087202 283.74815378 -356.29199219 288.05810547 C-363.98115316 292.6304816 -371.82043877 296.93125336 -379.64770508 301.26123047 C-386.95338128 305.3033825 -394.23801101 309.37986259 -401.5 313.5 C-410.94696506 318.85713049 -420.43477192 324.13809622 -429.93334961 329.40307617 C-438.28962313 334.03906222 -446.61600236 338.72565665 -454.9296875 343.4375 C-461.31932931 347.0568076 -467.72972406 350.63622686 -474.15454102 354.19262695 C-480.28948029 357.59362875 -486.39632662 361.04325624 -492.5 364.5 C-501.44156453 369.56239577 -510.40657772 374.57942865 -519.39550781 379.55712891 C-536.34147593 388.94508087 -553.27457884 398.35453891 -570.12890625 407.90625 C-586.68855382 417.28681778 -603.31713373 426.54083962 -619.97265625 435.75 C-621.44019843 436.56232973 -622.9076507 437.37482192 -624.375 438.1875 C-625.06376221 438.56849854 -625.75252441 438.94949707 -626.4621582 439.34204102 C-630.56103389 441.6179189 -634.63432672 443.93446734 -638.6953125 446.27734375 C-639.66033691 446.83333252 -640.62536133 447.38932129 -641.61962891 447.9621582 C-643.50702858 449.05175637 -645.39221037 450.14520747 -647.27490234 451.24291992 C-648.12262207 451.73252197 -648.9703418 452.22212402 -649.84375 452.7265625 C-650.59849609 453.16564941 -651.35324219 453.60473633 -652.13085938 454.05712891 C-654 455 -654 455 -656 455 C-656 455.66 -656 456.32 -656 457 C-655.27417725 457.27763184 -654.54835449 457.55526367 -653.80053711 457.84130859 C-651.15378659 458.93637249 -648.70246678 460.16474043 -646.19140625 461.5390625 C-645.27810547 462.03792969 -644.36480469 462.53679687 -643.42382812 463.05078125 C-642.47958984 463.57027344 -641.53535156 464.08976562 -640.5625 464.625 C-639.19834961 465.36943359 -639.19834961 465.36943359 -637.80664062 466.12890625 C-632.55343041 469.00627435 -627.33573645 471.94106598 -622.140625 474.921875 C-615.79170438 478.56430791 -609.39660498 482.11789048 -602.98028564 485.64047241 C-588.94312272 493.34913195 -574.95692032 501.14695475 -561 509 C-559.51113281 509.83724609 -559.51113281 509.83724609 -557.9921875 510.69140625 C-547.13770449 516.79882424 -536.30258689 522.93567065 -525.55126953 529.22338867 C-517.89061407 533.6896158 -510.08476575 537.88278416 -502.2734375 542.078125 C-484.27229306 551.74977263 -484.27229306 551.74977263 -475.625 556.9375 C-468.68026691 561.1024622 -461.5839006 564.9428386 -454.4375 568.75 C-444.62383979 573.97966199 -434.98720446 579.44870257 -425.41015625 585.09838867 C-419.16204422 588.77268098 -412.85698039 592.26612962 -406.42602539 595.60766602 C-396.47004701 600.80234764 -386.75742259 606.44451503 -377 612 C-365.39055354 618.60927025 -353.76188482 625.16499325 -342 631.5 C-328.43315051 638.80784835 -315.02616281 646.38755423 -301.6640625 654.0625 C-291.95589594 659.63662748 -282.20147369 665.10123403 -272.35986328 670.43652344 C-265.80602681 673.99626235 -259.29870469 677.63109525 -252.8125 681.3125 C-241.07869593 687.97165888 -229.28768056 694.52521874 -217.48779297 701.06640625 C-188.3995699 717.1925946 -188.3995699 717.1925946 -175.16796875 724.65234375 C-160.93348233 732.67580333 -146.66440567 740.63734354 -132.375 748.5625 C-123.08238083 753.71755381 -113.81504463 758.91472874 -104.56860352 764.15209961 C-89.08815198 772.91885025 -73.56798819 781.61299866 -57.96850586 790.16625977 C-52.2726326 793.29178266 -46.60117744 796.45795649 -40.9440918 799.65307617 C-37.44668408 801.627341 -33.94320293 803.58967425 -30.4296875 805.53515625 C-29.6567334 805.9633667 -28.8837793 806.39157715 -28.08740234 806.83276367 C-26.54478864 807.68559993 -25.00086674 808.53607472 -23.45556641 809.3840332 C-20.04907999 811.26202522 -16.68574906 813.16463336 -13.40625 815.2578125 C-12.3646875 815.91523437 -11.323125 816.57265625 -10.25 817.25 C-8.92742187 818.12398437 -8.92742187 818.12398437 -7.578125 819.015625 C-4.03089289 820.37002272 -2.49319266 819.36731939 1 818 C2.91871403 817.04039156 4.81292106 816.03065709 6.68359375 814.98046875 C7.76398926 814.37710693 8.84438477 813.77374512 9.95751953 813.15209961 C11.10591309 812.50378174 12.25430664 811.85546387 13.4375 811.1875 C14.64934442 810.50813019 15.86142471 809.82918099 17.07373047 809.15063477 C20.71984949 807.10754459 24.36039759 805.0546702 28 803 C29.02528809 802.42185547 30.05057617 801.84371094 31.10693359 801.24804688 C35.82001207 798.58926534 40.52998763 795.92505635 45.23828125 793.2578125 C59.37313727 785.25658307 73.55925178 777.34575986 87.76269531 769.46704102 C93.01605692 766.55136549 98.25618706 763.6128884 103.49072266 760.66357422 C109.63397334 757.20306966 115.78520565 753.75689669 121.9375 750.3125 C123.00154053 749.71671143 124.06558105 749.12092285 125.16186523 748.50708008 C130.55907132 745.48530675 135.95689494 742.46464161 141.35546875 739.4453125 C151.41541642 733.81752833 161.46828064 728.17797385 171.5 722.5 C184.69644174 715.03078676 197.93131721 707.630636 211.16601562 700.22949219 C214.31924091 698.46590634 217.47222004 696.70188183 220.625 694.9375 C221.66269531 694.35677734 222.70039062 693.77605469 223.76953125 693.17773438 C230.6487754 689.32484106 237.51482336 685.44921994 244.375 681.5625 C252.72625461 676.83176074 261.10559687 672.15371634 269.5 667.5 C281.70473253 660.73314809 293.86121947 653.88430141 306 647 C319.329055 639.44065482 332.68919587 631.9426238 346.09277344 624.51611328 C352.92357548 620.72567251 359.72665778 616.89210512 366.5 613 C375.56804078 607.78931275 384.7029753 602.7044193 393.8515625 597.63671875 C401.08766545 593.62575671 408.30341312 589.58140202 415.5 585.5 C429.91232755 577.32935099 444.40918404 569.31124868 458.90234375 561.28515625 C467.95509242 556.26860772 476.97526128 551.19685565 485.98144531 546.09716797 C494.19526328 541.44827166 502.42899142 536.83555818 510.66674805 532.22924805 C517.58113535 528.36068127 524.48175523 524.46859226 531.375 520.5625 C540.8245692 515.21046655 550.31058523 509.92596418 559.80761719 504.65869141 C570.52157795 498.7154812 581.21200076 492.7308021 591.8984375 486.73828125 C595.03552164 484.98009177 598.17381873 483.22408656 601.3125 481.46875 C611.34644806 475.85625262 621.37197819 470.2299541 631.375 464.5625 C640.91782612 459.1557809 650.50354846 453.82874284 660.09765625 448.51367188 C666.88645636 444.74685764 673.6455173 440.93416663 680.375 437.0625 C690.1728721 431.42741419 700.06326262 425.9650736 709.96630859 420.51782227 C710.55886444 420.19160385 711.15142029 419.86538544 711.76193237 419.52928162 C713.47107505 418.59086666 715.18373703 417.65887043 716.89648438 416.72705078 C718.84803654 415.641047 720.78038957 414.51900606 722.68164062 413.34716797 C723.85243164 412.63197998 723.85243164 412.63197998 725.046875 411.90234375 C725.70010742 411.48331787 726.35333984 411.06429199 727.02636719 410.63256836 C729.93576382 409.70007867 731.31273723 410.65069822 734 412 C738.11541013 414.13258138 742.1441208 416.42179305 746.1875 418.6875 C747.27353516 419.28755859 748.35957031 419.88761719 749.47851562 420.50585938 C750.55166016 421.10591797 751.62480469 421.70597656 752.73046875 422.32421875 C753.69364014 422.86135498 754.65681152 423.39849121 755.64916992 423.9519043 C756.75494385 424.62777588 757.86071777 425.30364746 759 426 C759.81512865 426.43164772 760.6302573 426.86329544 761.47008681 427.30802339 C768.42379133 431.40594519 768.42379133 431.40594519 769.93286276 435.58072197 C770.29251366 438.76969655 770.33333806 441.82981926 770.26983643 445.03871155 C770.28543633 446.24919063 770.30103624 447.4596697 770.31710887 448.70682997 C770.3500484 452.05628735 770.33828312 455.40011777 770.30724669 458.74923003 C770.28458736 462.36431022 770.3195598 465.97890425 770.3470459 469.59388733 C770.39148685 476.6706092 770.38192144 483.7462699 770.35291949 490.82303316 C770.33032644 496.57423849 770.32727647 502.3251466 770.33815765 508.07638359 C770.34045615 509.30462283 770.34045615 509.30462283 770.34280108 510.55767499 C770.34599836 512.22114195 770.34924049 513.88460882 770.35252699 515.54807561 C770.38103439 531.14196398 770.34826841 546.73526423 770.29452333 562.32905614 C770.24983732 575.7086788 770.25761309 589.08743397 770.30371094 602.46704102 C770.35722692 618.00697485 770.3782967 633.54639354 770.3475883 649.08640665 C770.34440283 650.74341508 770.34125912 652.40042359 770.33815765 654.05743217 C770.33584352 655.28033335 770.33584352 655.28033335 770.33348264 656.52793961 C770.32484899 662.27261334 770.33942025 668.01696022 770.36295319 673.76158333 C770.39100076 680.76208619 770.38341277 687.76146792 770.33014575 694.76184232 C770.30386167 698.33380676 770.29356642 701.90390239 770.32663727 705.47585297 C770.36194279 709.3477159 770.31979757 713.21651964 770.26983643 717.08827209 C770.29214364 718.2177409 770.31445086 719.34720971 770.33743405 720.51090485 C770.25864683 723.64914707 770.10508823 726.05922136 769 729 C765.96489003 731.7555997 762.73547987 733.37215959 759 735 C758.05954834 735.54527344 757.11909668 736.09054687 756.15014648 736.65234375 C755.39805908 737.07644531 754.64597168 737.50054688 753.87109375 737.9375 C752.99412842 738.4327417 752.11716309 738.9279834 751.21362305 739.43823242 C749.83944214 740.21130737 749.83944214 740.21130737 748.4375 741 C747.45370361 741.55469971 746.46990723 742.10939941 745.45629883 742.6809082 C718.74513192 757.73055029 718.74513192 757.73055029 706.3359375 764.578125 C697.58075007 769.41045011 688.90092338 774.35799301 680.25 779.375 C671.27259328 784.5788505 662.23830022 789.64927113 653.11157227 794.5859375 C644.65940394 799.163526 636.29788888 803.89417265 627.9375 808.63671875 C621.69932381 812.17480435 615.44535238 815.68435718 609.1875 819.1875 C608.13361084 819.77756836 607.07972168 820.36763672 605.99389648 820.97558594 C600.64295613 823.96920092 595.28670512 826.95283781 589.92236328 829.92236328 C581.96214596 834.32919971 574.04920266 838.81329757 566.15380859 843.33520508 C550.0271181 852.56990972 533.8274609 861.67076953 517.57592773 870.68359375 C510.89818643 874.38728792 504.23083295 878.10801926 497.58032227 881.86035156 C492.73158512 884.59417967 487.86773447 887.30016165 483 890 C475.40564128 894.21354028 467.82785419 898.45530955 460.26416016 902.72363281 C457.75429759 904.13850897 455.24235787 905.54966251 452.73046875 906.9609375 C441.55962561 913.24694927 430.4418611 919.61052031 419.41992188 926.1550293 C413.63913316 929.56084714 407.77244513 932.65150392 401.75268555 935.61303711 C398.14326043 937.43167517 394.69897679 939.45999223 391.25 941.5625 C384.27161702 945.74435102 377.16888766 949.65502281 370 953.5 C363.08749636 957.20989698 356.22984873 960.96754672 349.5 965 C341.68194283 969.6829363 333.68305429 974.00401813 325.65893555 978.32202148 C318.67040059 982.08542132 311.74907981 985.93362795 304.88085938 989.91308594 C284.10566586 1001.91868842 263.19608771 1013.6919901 242.21313477 1025.32983398 C227.16399457 1033.67754694 212.15236232 1042.0924278 197.15771484 1050.53759766 C192.16142423 1053.35033371 187.15831833 1056.15080274 182.15454102 1058.95019531 C172.77848638 1064.19571969 163.41143666 1069.45627962 154.0625 1074.75 C146.67080655 1078.9352739 139.2618283 1083.08663119 131.83056641 1087.20117188 C125.8477404 1090.51832979 119.89039093 1093.87946159 113.9375 1097.25 C99.30051193 1105.5365488 84.63720557 1113.77699589 69.92138672 1121.92285156 C56.63448732 1129.27889975 43.45695665 1136.82511391 30.32421875 1144.45263672 C15.52353336 1153.04801083 15.52353336 1153.04801083 10.70141602 1155.52563477 C7.95449638 1156.96437373 7.95449638 1156.96437373 5.36621094 1158.81445312 C2.2224922 1160.79846959 -0.38054997 1162.10917608 -4 1163 C-9.2040612 1161.73621673 -13.35898549 1159.03812361 -17.8125 1156.1875 C-19.08926098 1155.41986251 -20.36893787 1154.65705569 -21.65136719 1153.89892578 C-24.23796768 1152.36220589 -26.8082702 1150.80277312 -29.36767578 1149.22119141 C-34.40816082 1146.11778718 -39.57912616 1143.25386007 -44.75 1140.375 C-46.61549366 1139.31931536 -48.48007638 1138.26201938 -50.34375 1137.203125 C-64.97490093 1128.90805826 -79.67213526 1120.72957891 -94.375 1112.5625 C-95.49688721 1111.93931885 -96.61877441 1111.3161377 -97.7746582 1110.67407227 C-103.4215139 1107.53863774 -109.07052123 1104.40715788 -114.72265625 1101.28125 C-126.85448985 1094.56546082 -138.93249448 1087.76791002 -150.95507812 1080.85928345 C-160.03548082 1075.64557901 -169.19696499 1070.60156863 -178.42138672 1065.64746094 C-185.63603664 1061.7642216 -192.76180622 1057.7457568 -199.86157227 1053.65698242 C-206.99449834 1049.55570044 -214.177325 1045.54891243 -221.375 1041.5625 C-229.81160784 1036.88881268 -238.23356121 1032.19184801 -246.625 1027.4375 C-261.71173672 1018.89014633 -276.83739464 1010.4120588 -292 1002 C-308.1542597 993.03778149 -324.26192562 983.99273416 -340.33911133 974.89306641 C-350.47849742 969.15732342 -360.64477145 963.46986704 -370.81201172 957.78369141 C-374.04343684 955.97569692 -377.27383358 954.16587824 -380.50390625 952.35546875 C-389.66156762 947.22305418 -398.81976231 942.0919494 -408 937 C-418.27155686 931.30273491 -428.5159894 925.55712568 -438.76220703 919.81445312 C-444.00743097 916.87503944 -449.2537592 913.93759829 -454.5 911 C-456.58333889 909.83334325 -458.66667221 908.66667657 -460.75 907.5 C-461.78125 906.9225 -462.8125 906.345 -463.875 905.75 C-467 904 -470.125 902.25 -473.25 900.5 C-474.28141113 899.92241943 -475.31282227 899.34483887 -476.37548828 898.74975586 C-478.45722732 897.58396248 -480.53893309 896.41810968 -482.62060547 895.25219727 C-487.85305923 892.3216794 -493.08610086 889.39222084 -498.3203125 886.46484375 C-509.4603784 880.23284988 -520.58565861 873.97626128 -531.69018555 867.68115234 C-537.74466359 864.25558553 -543.83002683 860.89246011 -549.9375 857.5625 C-557.43772087 853.47153899 -564.82357419 849.20604078 -572.1875 844.875 C-579.72955784 840.44088382 -587.310173 836.15158097 -595.0690918 832.10961914 C-601.66924462 828.67066335 -608.13826473 825.01888577 -614.61181641 821.34863281 C-618.38820377 819.21606648 -622.17612527 817.10420019 -625.96240234 814.98925781 C-635.62767676 809.58958142 -645.26504705 804.14614027 -654.86547852 798.63208008 C-663.59565115 793.63209486 -672.39699811 788.76054406 -681.20458984 783.89868164 C-682.30496582 783.29016357 -683.4053418 782.68164551 -684.5390625 782.0546875 C-685.52084473 781.51312012 -686.50262695 780.97155273 -687.51416016 780.41357422 C-689.38635669 779.34894861 -691.20798936 778.19467376 -693 777 C-692.67 829.14 -692.34 881.28 -692 935 C-684.08 939.29 -676.16 943.58 -668 948 C-663.94774315 950.25610895 -659.90289561 952.51481069 -655.875 954.8125 C-654.44607422 955.62364258 -654.44607422 955.62364258 -652.98828125 956.45117188 C-646.89277471 959.91358546 -640.80746093 963.3938245 -634.72265625 966.875 C-620.47108631 975.01649147 -606.15677205 983.03989042 -591.7779541 990.95413208 C-575.68577965 999.81184636 -559.66848656 1008.80222399 -543.66503906 1017.8190918 C-538.93334267 1020.48236443 -534.18682488 1023.11832141 -529.4375 1025.75 C-522.58446568 1029.54881928 -515.75598207 1033.38953163 -508.9375 1037.25 C-497.69734794 1043.61375072 -486.43048361 1049.92900708 -475.15722656 1056.23388672 C-470.97789082 1058.57175517 -466.79967648 1060.91162307 -462.62158203 1063.25170898 C-460.53672112 1064.41936806 -458.4517598 1065.58684789 -456.36669922 1066.75415039 C-451.2064228 1069.64318122 -446.04729431 1072.53422264 -440.890625 1075.4296875 C-429.70252546 1081.7085046 -418.49077993 1087.94119552 -407.25 1094.125 C-398.08702145 1099.16587939 -388.96572657 1104.27063748 -379.90063477 1109.48608398 C-372.70034719 1113.62081259 -365.44948934 1117.66249568 -358.1875 1121.6875 C-357.60574005 1122.00995697 -357.0239801 1122.33241394 -356.42459106 1122.66464233 C-354.70754768 1123.61628605 -352.99049268 1124.56790882 -351.2734375 1125.51953125 C-344.42653936 1129.31462824 -337.60039896 1133.14553446 -330.78320312 1136.99365234 C-313.51270426 1146.74022906 -296.22149503 1156.45181882 -278.875 1166.0625 C-271.06590096 1170.38984084 -263.29536974 1174.7841464 -255.52685547 1179.18383789 C-249.69882087 1182.48205724 -243.85882955 1185.75682607 -238 1189 C-231.29193315 1192.71402823 -224.60990582 1196.47229468 -217.9375 1200.25 C-201.52349861 1209.53768175 -185.10977147 1218.81571635 -168.5 1227.75 C-161.19203458 1231.68267631 -153.9797571 1235.72028315 -146.85913086 1239.98144531 C-139.84921797 1244.1473933 -132.70697762 1248.07143846 -125.5625 1252 C-124.6104921 1252.52355072 -124.6104921 1252.52355072 -123.63925171 1253.05767822 C-120.53472877 1254.76441093 -117.42942481 1256.46971639 -114.32373047 1258.17431641 C-102.50674532 1264.66523861 -90.75010241 1271.26002418 -79.01806641 1277.90307617 C-71.85696461 1281.95622907 -64.68194314 1285.98390643 -57.5 1290 C-50.3162417 1294.0171086 -43.13757357 1298.04258349 -35.9777832 1302.10229492 C-34.05411583 1303.18954315 -32.12692268 1304.27057973 -30.19604492 1305.3449707 C-25.69793544 1307.85453296 -21.29351153 1310.42260124 -16.984375 1313.24609375 C-9.46313712 1318.45145476 -9.46313712 1318.45145476 -0.78515625 1319.59375 C2.44886444 1318.03100175 5.1168771 1316.13981778 8 1314 C9.72754137 1313.0202601 11.45632071 1312.04210852 13.20458984 1311.09985352 C18.86128497 1308.04426013 24.40145684 1304.77062932 29.9609375 1301.54296875 C41.82069628 1294.66118057 53.72656634 1287.91206377 65.80493164 1281.4206543 C71.96833917 1278.10734184 78.06970173 1274.71929411 84.12890625 1271.21875 C89.51558925 1268.11602059 94.94938423 1265.09641413 100.375 1262.0625 C102.56120557 1260.83985744 104.74740363 1259.61720143 106.93359375 1258.39453125 C107.97628418 1257.8113916 109.01897461 1257.22825195 110.09326172 1256.62744141 C113.87839009 1254.50820188 117.65849954 1252.3801407 121.4375 1250.25 C126.8004435 1247.22802939 132.17808568 1244.23352808 137.5625 1241.25 C144.37521157 1237.47425368 151.16109442 1233.65298536 157.9375 1229.8125 C166.47457115 1224.97437058 175.04123161 1220.19224931 183.625 1215.4375 C191.61432489 1211.01098976 199.58063294 1206.55052032 207.5 1202 C217.66170466 1196.16219431 227.90644069 1190.47817304 238.15625 1184.796875 C253.75450386 1176.14982487 269.29758654 1167.40501161 284.81811523 1158.61938477 C292.80958823 1154.09927067 300.82893267 1149.63097607 308.86132812 1145.18408203 C314.7131321 1141.94421339 320.5607354 1138.69680394 326.40527344 1135.44384766 C328.26494249 1134.40902617 330.12501531 1133.37493016 331.98535156 1132.34130859 C342.78280907 1126.33885103 353.5645633 1120.34417675 364.10766602 1113.90332031 C367.5425675 1111.822154 371.01259954 1109.94065099 374.625 1108.1875 C380.99984517 1105.08896968 387.09613527 1101.56038831 393.23364258 1098.02294922 C400.7204032 1093.71420186 408.25640528 1089.49803072 415.8125 1085.3125 C423.53427629 1081.03312841 431.2530318 1076.74975074 438.94238281 1072.41235352 C443.90283275 1069.61483035 448.8713847 1066.8319783 453.84155273 1064.05175781 C465.16347714 1057.71841421 476.46717279 1051.35377021 487.7578125 1044.96484375 C494.21874763 1041.30909944 500.68911708 1037.67025739 507.16113281 1034.03417969 C508.97036217 1033.01666833 510.77833785 1031.99696578 512.5859375 1030.9765625 C521.05768233 1026.19728334 529.55648139 1021.46800976 538.0625 1016.75 C561.25697055 1003.88713501 561.25697055 1003.88713501 584.1875 990.5625 C588.64033386 987.91465969 593.08526743 985.38847783 597.75 983.125 C604.13627714 980.02284638 610.24500424 976.48204301 616.39453125 972.94140625 C623.3201142 968.95483119 630.27450526 965.02356704 637.25 961.125 C638.29567139 960.54041016 639.34134277 959.95582031 640.41870117 959.35351562 C642.54917669 958.16283591 644.67979239 956.97240699 646.81054688 955.78222656 C652.04251959 952.85866557 657.27108623 949.92902729 662.5 947 C664.58592918 945.8320164 666.67186669 944.66404765 668.7578125 943.49609375 C672.89913811 941.17702903 677.03970218 938.85661274 681.1796875 936.53515625 C691.74274475 930.61315228 702.31126205 924.70095101 712.89263916 918.81173706 C714.64355488 917.83696518 716.3938076 916.86100272 718.14404297 915.88500977 C719.21412598 915.29002686 720.28420898 914.69504395 721.38671875 914.08203125 C722.79763794 913.29662964 722.79763794 913.29662964 724.23706055 912.49536133 C725.14883057 912.00189209 726.06060059 911.50842285 727 911 C727.9993457 910.39913574 728.99869141 909.79827148 730.02832031 909.17919922 C733 908 733 908 735.58618164 908.6340332 C736.43559326 909.10156006 737.28500488 909.56908691 738.16015625 910.05078125 C739.11986328 910.56576172 740.07957031 911.08074219 741.06835938 911.61132812 C742.05642578 912.17271484 743.04449219 912.73410156 744.0625 913.3125 C745.02349609 913.83134766 745.98449219 914.35019531 746.97460938 914.88476562 C748.91246266 915.94330026 750.82728032 917.04528513 752.71458626 918.19151688 C755.92460708 920.09339329 755.92460708 920.09339329 759.38378716 921.0950737 C763.53634052 922.74457664 766.50837658 924.20562567 769 928 C771.45659299 936.38993451 770.72434714 945.57217683 770.58214831 954.2327857 C770.53616043 957.90022406 770.56545909 961.56717535 770.58526611 965.23474121 C770.61221059 972.41201606 770.57009899 979.58729829 770.50470163 986.76426104 C770.43124009 995.12116707 770.42719595 1003.47767555 770.42620002 1011.83485171 C770.4221396 1026.74286752 770.35642598 1041.64997031 770.25537109 1056.55761719 C770.15735594 1071.02647037 770.1007491 1085.49467985 770.09130859 1099.96386719 C770.0907202 1100.85560246 770.09013181 1101.74733773 770.0895256 1102.66609529 C770.0886597 1104.00137901 770.0886597 1104.00137901 770.0877763 1105.36363816 C770.08660503 1107.15593991 770.08541803 1108.94824164 770.08421516 1110.74054337 C770.08362815 1111.62442479 770.08304113 1112.50830621 770.08243633 1113.41897191 C770.07159959 1127.20650546 770.02334534 1140.99393831 769.97109828 1154.78136785 C769.95261311 1159.77987902 769.93961213 1164.77837004 769.93055345 1169.77690676 C769.91603196 1177.70250602 769.88544959 1185.62767191 769.82117845 1193.55303743 C769.79210186 1197.17486176 769.77083329 1200.79626903 769.77098465 1204.41822052 C769.77078285 1208.34042112 769.73187132 1212.26167801 769.68875122 1216.18365479 C769.69444787 1217.33383095 769.70014452 1218.48400712 769.7060138 1219.6690371 C769.57409039 1227.36209941 769.57409039 1227.36209941 766.62948418 1230.63399887 C765.7617544 1231.08477924 764.89402462 1231.53555962 764 1232 C763.08903564 1232.55187988 762.17807129 1233.10375977 761.23950195 1233.67236328 C760.24909912 1234.21618652 759.25869629 1234.76000977 758.23828125 1235.3203125 C757.12815674 1235.93310059 756.01803223 1236.54588867 754.87426758 1237.17724609 C753.68704446 1237.82655726 752.4997879 1238.4758073 751.3125 1239.125 C750.08917182 1239.79850973 748.86611063 1240.47250461 747.64331055 1241.14697266 C745.21394405 1242.48627521 742.78335284 1243.82330678 740.3515625 1245.15820312 C735.99788693 1247.550695 731.65388748 1249.96030412 727.3125 1252.375 C726.59562012 1252.77315918 725.87874023 1253.17131836 725.14013672 1253.58154297 C719.92642982 1256.4788486 714.72498349 1259.39750578 709.52856445 1262.32568359 C703.19222274 1265.8954318 696.84626201 1269.44792429 690.5 1273 C680.9933849 1278.3216378 671.49272829 1283.65363824 662 1289 C659.52102482 1290.39617376 657.04182681 1291.79195078 654.5625 1293.1875 C653.59751587 1293.73108154 653.59751587 1293.73108154 652.61303711 1294.28564453 C648.50686346 1296.59662238 644.39427032 1298.89572841 640.27734375 1301.1875 C629.80876659 1307.02148188 619.38785079 1312.91566234 609.0625 1319 C599.73577656 1324.49041091 590.26895254 1329.66398341 580.71557617 1334.74780273 C572.31850439 1339.236898 564.0962712 1343.97907213 555.8984375 1348.8203125 C548.03192917 1353.44706148 540.04093874 1357.80259811 531.99511719 1362.10791016 C524.94438154 1365.89925695 518.017867 1369.86703838 511.125 1373.9375 C501.70622303 1379.49594524 492.15178093 1384.74376961 482.50268555 1389.89038086 C474.89388484 1393.95657409 467.37600597 1398.15395237 459.90161133 1402.46142578 C453.13123327 1406.36247464 446.32299277 1410.19178174 439.5 1414 C431.85086176 1418.27138498 424.22227968 1422.57456014 416.625 1426.9375 C405.18001638 1433.50500148 393.63768116 1439.89574655 382.09375 1446.28710938 C367.27540226 1454.49145973 352.46728155 1462.71203491 337.77514648 1471.14086914 C327.6174815 1476.96674379 317.40249091 1482.68225526 307.15991211 1488.35742188 C296.06926027 1494.50607235 285.03048955 1500.74424684 274 1507 C260.72314688 1514.52973978 247.41737005 1522.00273385 234.06762695 1529.40258789 C225.7095472 1534.03944477 217.38170653 1538.72751135 209.06591797 1543.43969727 C203.43238504 1546.63026197 197.78784586 1549.79926454 192.125 1552.9375 C177.24383153 1561.18581265 162.38097857 1569.46687279 147.625 1577.9375 C138.52068885 1583.16263629 129.35109899 1588.26563673 120.16870117 1593.35205078 C111.77376208 1598.00524219 103.40967967 1602.7103447 95.05981445 1607.44384766 C89.49377927 1610.59714214 83.91240381 1613.71982291 78.3125 1616.8125 C70.68544923 1621.02804578 63.12223948 1625.35285712 55.5625 1629.6875 C44.87313982 1635.8162143 34.14183594 1641.86219357 23.35131836 1647.8112793 C18.51215484 1650.48057903 13.68762784 1653.16062344 8.9296875 1655.97265625 C8.18879883 1656.40650635 7.44791016 1656.84035645 6.68457031 1657.28735352 C5.36670051 1658.06329701 4.05538406 1658.85055003 2.75292969 1659.65209961 C0.20588789 1661.14440487 -1.42379786 1662.06563146 -4.40917969 1661.72558594 C-7.03141298 1660.99120247 -9.11331098 1660.05148151 -11.4921875 1658.734375 C-12.77887329 1658.02776733 -12.77887329 1658.02776733 -14.09155273 1657.30688477 C-15.46935913 1656.53622681 -15.46935913 1656.53622681 -16.875 1655.75 C-17.8431665 1655.2149585 -18.81133301 1654.67991699 -19.80883789 1654.12866211 C-22.87774133 1652.42822016 -25.93997457 1650.71636198 -29 1649 C-30.43883545 1648.19296631 -30.43883545 1648.19296631 -31.90673828 1647.36962891 C-37.64955381 1644.14218825 -43.38101804 1640.8949911 -49.10888672 1637.64111328 C-54.8597418 1634.37669445 -60.61896584 1631.12706062 -66.37695312 1627.87524414 C-71.15993062 1625.17325151 -75.94020451 1622.4667036 -80.71484375 1619.75 C-90.4003052 1614.24605107 -100.12184668 1608.83116695 -109.9375 1603.5625 C-119.12513888 1598.62816281 -128.14911217 1593.45834725 -137.13378906 1588.16479492 C-144.65193757 1583.74889648 -152.26267466 1579.53555293 -159.93334961 1575.39160156 C-166.0669791 1572.07208326 -172.14243396 1568.66550694 -178.1875 1565.1875 C-190.71394113 1557.98500376 -203.35940316 1550.99955803 -216 1544 C-229.84112749 1536.33063477 -243.6711259 1528.64444185 -257.43847656 1520.84326172 C-264.44656108 1516.87314664 -271.4699359 1512.93105064 -278.5 1509 C-286.51125196 1504.51970641 -294.51214177 1500.02187017 -302.5 1495.5 C-319.35212436 1485.96319018 -336.25478768 1476.51782655 -353.1875 1467.125 C-360.90096034 1462.84579163 -368.59588467 1458.54259265 -376.2421875 1454.14453125 C-388.12656603 1447.3355611 -400.11386978 1440.70030034 -412.09692383 1434.06689453 C-419.11654948 1430.18098769 -426.10179503 1426.24056123 -433.0625 1422.25 C-443.93833154 1416.0151136 -454.87473435 1409.89098781 -465.81933594 1403.77783203 C-468.94605873 1402.03015047 -472.07102633 1400.27937697 -475.1953125 1398.52734375 C-484.88358415 1393.09492578 -494.57838736 1387.67515094 -504.29345703 1382.29077148 C-514.23910674 1376.77844536 -524.15385624 1371.22114245 -534.01318359 1365.5559082 C-542.24766823 1360.83487706 -550.54862909 1356.23598411 -558.8515625 1351.63671875 C-566.08766455 1347.6257572 -573.30345793 1343.58148001 -580.5 1339.5 C-589.94706086 1334.14303647 -599.43477003 1328.86190483 -608.93334961 1323.59692383 C-617.28445966 1318.96380243 -625.60566931 1314.28006221 -633.91430664 1309.57128906 C-640.47720108 1305.85398638 -647.06061772 1302.17571879 -653.65771484 1298.51953125 C-662.9603448 1293.36279779 -672.22429376 1288.13802251 -681.48046875 1282.8984375 C-683.44528147 1281.78640351 -685.41012587 1280.67442549 -687.375 1279.5625 C-688.36693359 1279.00111328 -689.35886719 1278.43972656 -690.38085938 1277.86132812 C-696.13451574 1274.60860447 -701.90198533 1271.38314088 -707.6875 1268.1875 C-715.91422571 1263.64043283 -724.06803185 1258.96758289 -732.22055054 1254.28930664 C-739.00913734 1250.39521687 -745.81229251 1246.53125441 -752.66015625 1242.7421875 C-753.28023056 1242.39900986 -753.90030487 1242.05583221 -754.53916931 1241.70225525 C-757.51346427 1240.05779388 -760.49046216 1238.41854801 -763.47045898 1236.78442383 C-764.53208252 1236.19943115 -765.59370605 1235.61443848 -766.6875 1235.01171875 C-767.61949219 1234.50084717 -768.55148437 1233.98997559 -769.51171875 1233.46362305 C-774.08294609 1230.77479771 -774.08294609 1230.77479771 -776 1229 C-776.48101807 1226.62715149 -776.48101807 1226.62715149 -776.45410156 1223.79418945 C-776.45379944 1222.73331619 -776.45349731 1221.67244293 -776.45318604 1220.579422 C-776.43254089 1219.43559555 -776.41189575 1218.2917691 -776.390625 1217.11328125 C-776.38496521 1215.94113571 -776.37930542 1214.76899017 -776.37347412 1213.56132507 C-776.35105322 1209.81130422 -776.30084384 1206.06223289 -776.25 1202.3125 C-776.2299425 1199.77280024 -776.21169043 1197.23308553 -776.1953125 1194.69335938 C-776.15116961 1188.46191468 -776.08419982 1182.23102516 -776 1176 C-775.3685759 1175.66365036 -774.73715179 1175.32730072 -774.08659363 1174.98075867 C-771.19357018 1173.43499692 -768.30577641 1171.87970137 -765.41796875 1170.32421875 C-764.42470581 1169.79534058 -763.43144287 1169.2664624 -762.40808105 1168.72155762 C-756.9605384 1165.77800885 -752.11633331 1162.71051962 -747.3125 1158.8125 C-743.19377747 1156.76791884 -743.19377747 1156.76791884 -740 1157 C-731.52089044 1159.93160703 -723.93139768 1165.06614316 -716.40380859 1169.86083984 C-711.51000148 1172.96576544 -706.44146132 1175.75177296 -701.375 1178.5625 C-699.49120148 1179.62716348 -697.60839197 1180.69357877 -695.7265625 1181.76171875 C-689.74319745 1185.14858741 -683.74856895 1188.51514452 -677.75 1191.875 C-676.71673584 1192.45386963 -675.68347168 1193.03273926 -674.61889648 1193.62915039 C-669.17427161 1196.67580289 -663.72279392 1199.70948945 -658.26171875 1202.7265625 C-647.41506007 1208.72226156 -636.61439105 1214.76858653 -625.9375 1221.0625 C-616.57770786 1226.57712119 -607.07879391 1231.78085507 -597.49536133 1236.89526367 C-588.18485424 1241.87251748 -579.01348623 1247.06376368 -569.87158203 1252.34277344 C-564.27480218 1255.57274637 -558.66998466 1258.78865852 -553.0625 1262 C-552.46443542 1262.34268921 -551.86637085 1262.68537842 -551.25018311 1263.03845215 C-542.58923299 1267.99734405 -533.86505204 1272.82547928 -525.08178711 1277.56469727 C-518.34617891 1281.21821148 -511.72689076 1285.04832802 -505.125 1288.9375 C-496.12033732 1294.24078811 -487.01157291 1299.300189 -477.80273438 1304.23925781 C-470.2994531 1308.27134896 -462.88939759 1312.44613892 -455.5065918 1316.6940918 C-450.07056767 1319.8209809 -444.61326434 1322.90326772 -439.125 1325.9375 C-432.33406184 1329.69399575 -425.56712093 1333.49107491 -418.8125 1337.3125 C-417.35408691 1338.13741943 -417.35408691 1338.13741943 -415.86621094 1338.97900391 C-411.05589331 1341.70115235 -406.24761803 1344.42685942 -401.44140625 1347.15625 C-390.17343936 1353.5486066 -378.85757697 1359.84812777 -367.50595093 1366.090271 C-357.024775 1371.85614816 -346.62153626 1377.74934146 -336.25048828 1383.7109375 C-332.88567136 1385.63827894 -329.50689131 1387.54032037 -326.125 1389.4375 C-320.73209329 1392.46282276 -315.34579455 1395.4994826 -309.96435547 1398.54516602 C-299.77111421 1404.31413236 -289.56058865 1410.05128225 -279.33813477 1415.76831055 C-271.4337722 1420.19120106 -263.54626231 1424.64323167 -255.6640625 1429.10546875 C-248.62053564 1433.09036819 -241.56300292 1437.04973803 -234.5 1441 C-226.18082395 1445.65484657 -217.86593571 1450.31712242 -209.5625 1455 C-208.64597656 1455.515625 -207.72945312 1456.03125 -206.78515625 1456.5625 C-201.57554199 1459.50439982 -196.42551812 1462.52428005 -191.32275391 1465.64819336 C-188.86921217 1467.07611648 -186.36954065 1468.3307945 -183.8125 1469.5625 C-174.71611171 1474.02947639 -165.99021027 1479.18169013 -157.18652344 1484.19287109 C-151.78370349 1487.25689754 -146.35990162 1490.2833075 -140.9375 1493.3125 C-133.53934844 1497.44898066 -126.15950231 1501.61223184 -118.80859375 1505.83203125 C-113.58004753 1508.81956406 -108.31839755 1511.74846684 -103.0625 1514.6875 C-91.97103614 1520.89006155 -80.90168859 1527.13073946 -69.84277344 1533.39111328 C-65.06306265 1536.0962227 -60.28143665 1538.79794269 -55.5 1541.5 C-48.67113304 1545.35949024 -41.84229419 1549.21902928 -35.01513672 1553.08154297 C-33.06863704 1554.18145853 -31.12106877 1555.27948548 -29.17236328 1556.37548828 C-24.81535422 1558.82776917 -20.47450484 1561.29827278 -16.17578125 1563.8515625 C-15.44286865 1564.28114258 -14.70995605 1564.71072266 -13.95483398 1565.15332031 C-12.61522296 1565.9401983 -11.28207055 1566.73823062 -9.95727539 1567.54980469 C-7.36802604 1569.05904439 -5.63231765 1570.0655694 -2.59619141 1569.75073242 C0.16924748 1568.95105924 2.25597462 1567.88814832 4.71875 1566.40234375 C5.63599854 1565.85634521 6.55324707 1565.31034668 7.49829102 1564.74780273 C8.48885498 1564.15040283 9.47941895 1563.55300293 10.5 1562.9375 C12.66359596 1561.65326565 14.829043 1560.37214602 16.99609375 1559.09375 C17.56182602 1558.75995834 18.12755829 1558.42616669 18.71043396 1558.08226013 C25.25548584 1554.23658284 31.90554318 1550.58481845 38.5625 1546.9375 C41.02504665 1545.58649649 43.48724449 1544.2348588 45.94921875 1542.8828125 C46.84800751 1542.38933823 46.84800751 1542.38933823 47.76495361 1541.88589478 C56.29556211 1537.19614301 64.75695376 1532.38391784 73.22167969 1527.57666016 C77.97739584 1524.87785392 82.73900337 1522.18947629 87.5 1519.5 C93.20500893 1516.27675202 98.90927073 1513.05222787 104.609375 1509.8203125 C116.02251744 1503.35286512 127.47060705 1496.9519181 138.94335938 1490.59082031 C149.0592727 1484.97761626 159.13439156 1479.2942698 169.19824219 1473.58837891 C187.15410799 1463.40879866 205.15097681 1453.30391087 223.16601562 1443.22949219 C235.23284541 1436.48056423 247.28911847 1429.71405245 259.32104492 1422.90307617 C266.51575892 1418.83273277 273.72385612 1414.78668981 280.9375 1410.75 C282.00186279 1410.15429199 283.06622559 1409.55858398 284.1628418 1408.94482422 C287.84238293 1406.88566047 291.52194347 1404.82653183 295.20214844 1402.76855469 C303.06550445 1398.36933645 310.89676308 1393.91662642 318.71435547 1389.43652344 C332.65512623 1381.44847845 346.66634298 1373.59945657 360.72265625 1365.81591797 C374.24814956 1358.32168233 387.73370072 1350.77720412 401.0625 1342.9375 C409.9660304 1337.70338273 418.97312926 1332.70590677 428.07275391 1327.82177734 C436.83985858 1323.1104761 445.50364818 1318.2301234 454.15625 1313.3125 C459.18629629 1310.45467343 464.23559549 1307.63260674 469.28930664 1304.81689453 C478.75492448 1299.54198722 488.15895571 1294.18017954 497.5 1288.6875 C504.74631671 1284.42738907 512.03159421 1280.32880852 519.49682617 1276.46704102 C525.71899728 1273.21749527 531.76262034 1269.68308011 537.8125 1266.125 C547.67247295 1260.32611215 557.62685018 1254.74016539 567.67236328 1249.27050781 C571.39495316 1247.23858441 575.10498377 1245.18427179 578.8125 1243.125 C579.5348584 1242.7237793 580.2572168 1242.32255859 581.00146484 1241.90917969 C588.17702829 1237.91492368 595.32191675 1233.86660659 602.4675293 1229.8190918 C608.33773851 1226.49647025 614.22207353 1223.20159578 620.125 1219.9375 C627.5145089 1215.84996985 634.84732553 1211.66777699 642.1730957 1207.46728516 C648.50835727 1203.83963469 654.8707232 1200.26482367 661.26171875 1196.73632812 C668.86705971 1192.53535422 676.42604691 1188.26034861 684 1184 C684 1132.19 684 1080.38 684 1027 C675.75 1031.62 667.5 1036.24 659 1041 C649.875 1046.0625 649.875 1046.0625 645.55078125 1048.4609375 C640.37264227 1051.34262489 635.21823316 1054.26597632 630.0625 1057.1875 C621.56557764 1062.00194625 613.04164379 1066.76537432 604.5 1071.5 C595.16297224 1076.67614077 585.85065562 1081.89296182 576.5625 1087.15625 C569.55403018 1091.12642196 562.53038144 1095.06877191 555.5 1099 C547.48874804 1103.48029359 539.48785823 1107.97812983 531.5 1112.5 C514.83453819 1121.93117535 498.12029176 1131.27387235 481.375 1140.5625 C468.24978196 1147.84470978 455.17771868 1155.21850237 442.12646484 1162.63232422 C430.89008063 1169.0149542 419.62136743 1175.32253139 408.26269531 1181.48510742 C399.75866919 1186.10873643 391.3366956 1190.87177442 382.91796875 1195.6484375 C376.79205721 1199.1230178 370.64725333 1202.56335779 364.5 1206 C350.94102291 1213.58488402 337.384928 1221.17732567 323.9140625 1228.91796875 C312.67677152 1235.37482709 301.36523697 1241.68574286 290.01025391 1247.93237305 C279.00112946 1253.98973983 268.03443611 1260.12104741 257.078125 1266.2734375 C253.92896549 1268.03984423 250.77735136 1269.80179643 247.625 1271.5625 C237.93302778 1276.97746904 228.2535449 1282.41041451 218.625 1287.9375 C209.51926549 1293.16343791 200.34840226 1298.26752249 191.16430664 1303.35424805 C182.81918272 1307.97937773 174.50730824 1312.66024486 166.20922852 1317.36914062 C160.18907605 1320.77956408 154.13742904 1324.12583257 148.0625 1327.4375 C140.60251758 1331.50583278 133.25945403 1335.75121024 125.9375 1340.0625 C118.05711008 1344.69938342 110.1151653 1349.12499088 101.99389648 1353.32373047 C95.3603167 1356.76802203 88.88023004 1360.44914458 82.40649414 1364.18359375 C75.06532088 1368.41189491 67.66483481 1372.52758556 60.25 1376.625 C51.97851154 1381.19980503 43.74292787 1385.81576117 35.63769531 1390.68017578 C32.03873336 1392.83426324 28.39774641 1394.86831888 24.69921875 1396.84765625 C20.89358697 1398.89987891 17.27291926 1401.09442801 13.67578125 1403.4921875 C0.47514577 1412.02826598 0.47514577 1412.02826598 -5.16113281 1411.98242188 C-9.56235527 1410.8527674 -13.06901668 1408.22424043 -16.70117188 1405.58447266 C-20.26289604 1403.12954595 -24.05539484 1401.13166054 -27.85083008 1399.0637207 C-31.10494238 1397.28935753 -34.33390562 1395.4756721 -37.55859375 1393.6484375 C-38.63351074 1393.03967773 -39.70842773 1392.43091797 -40.81591797 1391.80371094 C-41.86666504 1391.20848633 -42.91741211 1390.61326172 -44 1390 C-45.96984527 1388.8876545 -47.93989092 1387.77566378 -49.91015625 1386.6640625 C-57.47852287 1382.39216862 -65.04139292 1378.11060021 -72.6015625 1373.82421875 C-84.18475283 1367.26131418 -95.80163932 1360.76171353 -107.44433594 1354.30517578 C-113.91319935 1350.71725427 -120.37241232 1347.11380508 -126.81323242 1343.47583008 C-130.860395 1341.19371347 -134.91934354 1338.93374385 -138.984375 1336.68359375 C-150.76673941 1330.16067147 -162.51108534 1323.58556687 -174.1875 1316.875 C-183.8538383 1311.3198772 -193.59507916 1305.92519409 -203.41699219 1300.6496582 C-210.67360113 1296.7435106 -217.84422757 1292.70576509 -224.98681641 1288.59545898 C-231.9012422 1284.61812863 -238.84974713 1280.70456985 -245.8125 1276.8125 C-247.41726196 1275.91543335 -247.41726196 1275.91543335 -249.05444336 1275.00024414 C-251.11516935 1273.84851646 -253.17595774 1272.69690041 -255.23681641 1271.54541016 C-259.44144622 1269.19381918 -263.63920234 1266.83010642 -267.83642578 1264.46533203 C-271.81794869 1262.22361708 -275.80415591 1259.9904398 -279.79296875 1257.76171875 C-289.6780979 1252.23722558 -299.5544853 1246.70120998 -309.375 1241.0625 C-318.48579528 1235.83351259 -327.66211768 1230.72709495 -336.85107422 1225.63696289 C-345.02324596 1221.10720192 -353.16459941 1216.52600631 -361.29199219 1211.91650391 C-368.71261541 1207.7137071 -376.16496145 1203.56985843 -383.625 1199.4375 C-392.45970231 1194.54259737 -401.25551335 1189.58821357 -410.01269531 1184.55615234 C-418.24084538 1179.83886814 -426.53525745 1175.24334616 -434.83178711 1170.64770508 C-442.26205515 1166.52915938 -449.67149212 1162.37606983 -457.0625 1158.1875 C-463.65249422 1154.45316994 -470.24976838 1150.73398879 -476.875 1147.0625 C-497.91158336 1135.40470681 -518.8651394 1123.59803896 -539.77734375 1111.71875 C-549.26672428 1106.33396661 -558.78047119 1101.00796953 -568.375 1095.8125 C-575.51956123 1091.94349747 -582.56126579 1087.94750001 -589.53759766 1083.78393555 C-596.1172137 1079.8800507 -602.83375699 1076.24360655 -609.56201172 1072.60375977 C-615.96576065 1069.13141365 -622.31075313 1065.56985452 -628.625 1061.9375 C-637.89159127 1056.608669 -647.23874262 1051.43946522 -656.61523438 1046.30712891 C-667.70706807 1040.22751408 -678.72657965 1034.02870543 -689.69995117 1027.73803711 C-699.69392311 1022.01620068 -709.74801267 1016.40254434 -719.80175781 1010.78662109 C-733.46535081 1003.15378342 -747.12166898 995.50815386 -760.75 987.8125 C-761.7085791 987.27165771 -762.6671582 986.73081543 -763.65478516 986.17358398 C-764.99355713 985.41670288 -764.99355713 985.41670288 -766.359375 984.64453125 C-767.13764648 984.20471924 -767.91591797 983.76490723 -768.71777344 983.31176758 C-769.4709082 982.87888428 -770.22404297 982.44600098 -771 982 C-771.85938162 981.58315718 -772.71876323 981.16631437 -773.60418671 980.73683995 C-776 979 -776 979 -776.62099248 976.68455964 C-776.61909388 975.76525672 -776.61719528 974.8459538 -776.61523914 973.89879322 C-776.63017201 972.30663021 -776.63017201 972.30663021 -776.64540654 970.6823023 C-776.63084234 969.51208349 -776.61627813 968.34186468 -776.60127258 967.13618469 C-776.60768077 965.27636523 -776.60768077 965.27636523 -776.61421841 963.37897366 C-776.62104631 959.93054831 -776.60536333 956.48353255 -776.58032811 953.03527725 C-776.55878133 949.3195487 -776.56603941 945.60386547 -776.56983948 941.88809204 C-776.57246415 935.44810428 -776.55674659 929.00836936 -776.52865028 922.56844521 C-776.48805409 913.25738443 -776.47499707 903.94644619 -776.46871033 894.6353065 C-776.45776102 879.52950673 -776.42446963 864.42384178 -776.37719727 849.31811523 C-776.3313181 834.64234086 -776.29591817 819.96660307 -776.2746582 805.29077148 C-776.27334459 804.38649999 -776.27203097 803.48222851 -776.27067754 802.55055485 C-776.26415246 798.01419339 -776.2578339 793.47783168 -776.25161803 788.94146979 C-776.19976522 751.29421798 -776.11168269 713.64711948 -776 676 C-775.3608667 675.66790527 -774.7217334 675.33581055 -774.06323242 674.99365234 C-771.10406332 673.4552366 -768.14577944 671.91512579 -765.1875 670.375 C-763.68026367 669.59189453 -763.68026367 669.59189453 -762.14257812 668.79296875 C-760.63920898 668.00986328 -760.63920898 668.00986328 -759.10546875 667.2109375 C-758.09532715 666.68725586 -757.08518555 666.16357422 -756.04443359 665.62402344 C-753.99490534 664.53072256 -751.96628513 663.39740084 -749.95947266 662.22753906 C-748.99960449 661.6703418 -748.03973633 661.11314453 -747.05078125 660.5390625 C-746.19782471 660.02811035 -745.34486816 659.5171582 -744.46606445 658.99072266 C-741.46557034 657.78529695 -740.04685629 658.03024722 -737 659 C-734.68836964 660.17033547 -732.47981478 661.37812701 -730.25 662.6875 C-728.82203034 663.50853601 -727.39361388 664.32879526 -725.96484375 665.1484375 C-725.17835449 665.60186523 -724.39186523 666.05529297 -723.58154297 666.52246094 C-718.68166428 669.32689311 -713.74299368 672.06238186 -708.8125 674.8125 C-701.05961374 679.146873 -693.32774236 683.51466881 -685.625 687.9375 C-677.76861331 692.44742464 -669.86378265 696.8641842 -661.9375 701.25 C-652.62250333 706.40443913 -643.35677063 711.63504099 -634.125 716.9375 C-624.52958753 722.447825 -614.8850788 727.85902611 -605.1875 733.1875 C-593.66703686 739.51771867 -582.20011969 745.93638889 -570.76953125 752.42773438 C-566.05755623 755.10272725 -561.34154637 757.77057757 -556.625 760.4375 C-555.67947266 760.97213867 -554.73394531 761.50677734 -553.75976562 762.05761719 C-542.52520819 768.40510411 -531.26227921 774.70187779 -520 781 C-506.87230126 788.34130716 -493.7527374 795.69588105 -480.66357422 803.10571289 C-473.62024036 807.09058246 -466.56293416 811.04998867 -459.5 815 C-450.5406579 820.01059503 -441.59718026 825.04829051 -432.6640625 830.10546875 C-424.5673413 834.6862165 -416.45103468 839.23149494 -408.33154297 843.77172852 C-401.41770984 847.6399405 -394.51760518 851.53161061 -387.625 855.4375 C-378.08736083 860.84139041 -368.50698174 866.16589914 -358.91772461 871.47753906 C-351.12279905 875.80215549 -343.37524729 880.2024748 -335.64892578 884.64819336 C-329.39795141 888.23251196 -323.08704991 891.69553126 -316.75 895.125 C-309.63620801 898.97686112 -302.61486564 902.94023153 -295.66503906 907.07958984 C-286.30173049 912.63591097 -276.76414658 917.88633668 -267.25390625 923.18554688 C-261.9983768 926.11615123 -256.74945081 929.05852584 -251.5 932 C-249.41669999 933.16672618 -247.33336662 934.33339277 -245.25 935.5 C-214 953 -214 953 -182.75 970.5 C-181.7180249 971.07790283 -180.6860498 971.65580566 -179.62280273 972.2512207 C-177.54678251 973.41379852 -175.47077333 974.57639607 -173.39477539 975.73901367 C-168.07464352 978.71840447 -162.75429955 981.6974155 -157.43359375 984.67578125 C-151.2883139 988.11585196 -145.14392166 991.55750426 -139 995 C-138.23896973 995.42619629 -137.47793945 995.85239258 -136.69384766 996.29150391 C-128.64714676 1000.79924271 -120.62822819 1005.35299349 -112.625 1009.9375 C-105.42377336 1014.06183889 -98.19615054 1018.13262759 -90.93432617 1022.14916992 C-84.91569853 1025.48160286 -78.92379714 1028.85987608 -72.9375 1032.25 C-62.56234545 1038.12491926 -52.16303395 1043.95588068 -41.7578125 1049.77734375 C-37.62959895 1052.08706506 -33.50196084 1054.39774191 -29.3815918 1056.72143555 C-28.10793089 1057.43624034 -26.8308429 1058.14498042 -25.55004883 1058.84692383 C-22.22151984 1060.68176391 -19.03967408 1062.62168404 -15.89453125 1064.7578125 C-15.20109619 1065.20535889 -14.50766113 1065.65290527 -13.79321289 1066.11401367 C-12.47843835 1066.96565577 -11.18663703 1067.85445652 -9.92749023 1068.78637695 C-7.83240774 1070.10835797 -6.47495657 1070.74040848 -4 1071 C0.35201054 1069.59741976 4.09726663 1067.35299231 8 1065 C8.94230469 1064.46270264 9.88460937 1063.92540527 10.85546875 1063.37182617 C13.71384935 1061.73600294 16.54525655 1060.05981826 19.375 1058.375 C27.20179641 1053.76120026 35.06954885 1049.25729164 43.0625 1044.9375 C53.47642939 1039.30827315 63.78524379 1033.50581294 74.078125 1027.65869141 C79.02744215 1024.84906067 83.98260292 1022.04977488 88.9375 1019.25 C89.90059082 1018.70569336 90.86368164 1018.16138672 91.85595703 1017.60058594 C102.73976345 1011.45025268 113.62819323 1005.31018014 124.5625 999.25 C135.41301411 993.23399011 146.20457663 987.1141271 157 981 C169.87059105 973.71244189 182.75468704 966.45024564 195.66357422 959.23071289 C202.61939576 955.33862388 209.56369385 951.42675183 216.5 947.5 C225.53940309 942.38265197 234.59814296 937.3006682 243.6640625 932.23046875 C250.61969795 928.33841963 257.56385204 924.42666228 264.5 920.5 C273.53940309 915.38265197 282.59814296 910.3006682 291.6640625 905.23046875 C299.56625612 900.80876984 307.45184215 896.35835943 315.33154297 891.89672852 C322.41677941 887.88767265 329.51849837 883.9087163 336.625 879.9375 C344.2319123 875.68609809 351.81776224 871.40156293 359.375 867.0625 C368.48296835 861.83515043 377.65672305 856.73086511 386.84228516 851.64135742 C397.93220749 845.49311956 408.97023949 839.2553397 420 833 C432.03331029 826.17551424 444.08472687 819.38818446 456.1875 812.6875 C466.08804904 807.20466376 475.93115362 801.6302229 485.74679565 795.99761963 C497.8121079 789.07681221 509.9666799 782.32453834 522.13574219 775.58789062 C530.01622664 771.21909836 537.86761628 766.79958654 545.68359375 762.31640625 C556.68979111 756.00340149 567.74565952 749.78921153 578.84448242 743.64038086 C587.06060419 739.08581056 595.24855977 734.48407124 603.42163086 729.8527832 C610.5816164 725.79701391 617.75624768 721.76798536 624.9375 717.75 C626.00202393 717.15421143 627.06654785 716.55842285 628.16333008 715.94458008 C631.84269799 713.885479 635.52210212 711.82644312 639.20214844 709.76855469 C641.07295061 708.72191925 642.9429687 707.67390359 644.8125 706.625 C645.39862061 706.29661133 645.98474121 705.96822266 646.58862305 705.62988281 C650.46117362 703.45198084 654.31602699 701.24457991 658.16386414 699.02328491 C660.71609433 697.55019223 663.27025361 696.08045768 665.8243103 694.61053467 C667.10012857 693.87477728 668.37490449 693.13720926 669.64859009 692.39776611 C671.44554288 691.35457215 673.24585432 690.3174007 675.046875 689.28125 C676.09713867 688.67345703 677.14740234 688.06566406 678.22949219 687.43945312 C681 686 681 686 685 685 C684.67 632.86 684.34 580.72 684 527 C676.08 531.62 668.16 536.24 660 541 C649.9375 546.5625 649.9375 546.5625 645.06640625 549.21875 C639.4707193 552.27715263 633.92212488 555.41710034 628.375 558.5625 C621.5990418 562.40394836 614.81502529 566.22826392 608 570 C600.3154024 574.25460719 592.66696485 578.57139661 585.02392578 582.90014648 C577.82053557 586.97754839 570.60083907 591.02503809 563.375 595.0625 C555.76806712 599.31386218 548.18219013 603.59835616 540.625 607.9375 C532.62309768 612.53107035 524.57161421 617.03015006 516.5 621.5 C506.67243045 626.94284502 496.8933457 632.46159765 487.1484375 638.05078125 C472.18858741 646.62993753 457.1390113 655.0466296 442.05712891 663.40893555 C431.94387545 669.02058433 421.87161517 674.70267807 411.81054688 680.40722656 C406.08051637 683.65450931 400.34532919 686.89267993 394.61083984 690.13208008 C389.89166649 692.79844897 385.17422821 695.4677756 380.4609375 698.14453125 C369.0946863 704.59351761 357.67711528 710.94053537 346.22332764 717.23208618 C338.60969322 721.4173798 331.05424092 725.67501709 323.59912109 730.13793945 C316.118075 734.58342488 308.47240721 738.73368529 300.84506226 742.92071533 C291.93348055 747.81365731 283.06865695 752.77881435 274.25439453 757.84545898 C268.17685323 761.33662252 262.06437956 764.75869782 255.93115234 768.15087891 C249.91363153 771.48282928 243.92274375 774.8604545 237.9375 778.25 C229.80409885 782.85575109 221.65803696 787.43802725 213.5 792 C204.54206167 797.00975104 195.59975861 802.04620497 186.66845703 807.10327148 C179.58322079 811.11232724 172.48152201 815.0913204 165.375 819.0625 C157.62125475 823.39549286 149.89069919 827.76529306 142.1875 832.1875 C134.72047702 836.4726649 127.20501514 840.65823816 119.65234375 844.7902832 C110.35490809 849.88480581 101.13612019 855.11695539 91.91455078 860.34716797 C76.03629191 869.35167564 60.12816067 878.30176645 44.19677734 887.21191406 C38.77614855 890.24388942 33.3567937 893.27813916 27.9375 896.3125 C26.89843506 896.89410889 25.85937012 897.47571777 24.78881836 898.07495117 C20.19460901 900.64728244 15.6018671 903.22207987 11.015625 905.80859375 C10.27449463 906.2264917 9.53336426 906.64438965 8.76977539 907.07495117 C7.43511586 907.82811289 6.10092521 908.58210649 4.76733398 909.3371582 C3.18221722 910.23188619 1.59143434 911.11655785 0 912 C-0.95447021 912.60859863 -0.95447021 912.60859863 -1.92822266 913.22949219 C-4 914 -4 914 -6.02368164 913.3125 C-7.08123657 912.6628125 -7.08123657 912.6628125 -8.16015625 912 C-8.95486328 911.52433594 -9.74957031 911.04867187 -10.56835938 910.55859375 C-11.39142578 910.04425781 -12.21449219 909.52992188 -13.0625 909 C-14.67743661 908.01926926 -16.29333156 907.04011493 -17.91015625 906.0625 C-18.73837891 905.55831543 -19.56660156 905.05413086 -20.41992188 904.53466797 C-24.87212801 901.88643105 -29.4355672 899.44802608 -34 897 C-35.86201591 895.99746408 -37.72399476 894.9948593 -39.5859375 893.9921875 C-40.52477783 893.48703613 -41.46361816 892.98188477 -42.4309082 892.46142578 C-51.97803786 887.31694875 -61.45568842 882.07461836 -70.85302734 876.66162109 C-78.02879306 872.5348494 -85.25762366 868.50854749 -92.5 864.5 C-101.41413489 859.56392965 -110.29324968 854.57478339 -119.12866211 849.49926758 C-127.09230278 844.93029291 -135.10376804 840.44827975 -143.12548828 835.98217773 C-148.13296897 833.188864 -153.11371492 830.35992758 -158.05859375 827.45703125 C-162.70128533 824.73741258 -167.38689108 822.11913758 -172.11914062 819.55908203 C-177.67979557 816.54973097 -183.21301205 813.49011741 -188.75 810.4375 C-189.37806549 810.09128601 -190.00613098 809.74507202 -190.65322876 809.3883667 C-200.14057453 804.15596174 -209.59295286 798.86519091 -219.01733398 793.52001953 C-226.93938788 789.02741709 -234.89365048 784.59514701 -242.86132812 780.18408203 C-261.46118303 769.88621716 -280.0558212 759.57470975 -298.5 749 C-314.79052122 739.66204884 -331.20562097 730.54636829 -347.625 721.4375 C-356.91985342 716.28105679 -366.19018562 711.08382035 -375.43798828 705.84350586 C-382.44626546 701.87336235 -389.46977723 697.93113936 -396.5 694 C-404.51125156 689.51970664 -412.51218091 685.0219389 -420.5 680.5 C-431.59467275 674.22026645 -442.71613454 667.98899268 -453.84277344 661.76611328 C-459.06293711 658.84601863 -464.28138679 655.92286434 -469.5 653 C-471.58332501 651.83331846 -473.66665834 650.6666518 -475.75 649.5 C-479.91666667 647.16666667 -484.08333333 644.83333333 -488.25 642.5 C-489.28141113 641.92241943 -490.31282227 641.34483887 -491.37548828 640.74975586 C-493.45722732 639.58396248 -495.53893309 638.41810968 -497.62060547 637.25219727 C-502.85305923 634.3216794 -508.08610086 631.39222084 -513.3203125 628.46484375 C-523.35144606 622.85327585 -533.37446046 617.22843231 -543.375 611.5625 C-551.72625411 606.83176102 -560.10556973 602.15366674 -568.5 597.5 C-577.83326323 592.32586724 -587.14155236 587.11060615 -596.42651367 581.8503418 C-610.66138277 573.78799473 -624.93726628 565.79826415 -639.25 557.875 C-646.59692006 553.80656674 -653.88812043 549.64432397 -661.17358398 545.46704102 C-668.3395837 541.36360358 -675.54840777 537.34205193 -682.7734375 533.34375 C-686.67215583 531.18543646 -690.55680093 529.00300443 -694.4375 526.8125 C-699.39179373 524.01615288 -704.35881166 521.24381644 -709.3359375 518.48828125 C-720.38651841 512.36996019 -731.41801621 506.23096916 -742.32885742 499.86523438 C-750.48209418 495.11594941 -758.73899822 490.55833055 -767 486 C-769.97 484.35 -772.94 482.7 -776 481 C-776 464.5 -776 448 -776 431 C-772.143125 428.9375 -768.28625 426.875 -764.3125 424.75 C-753.30920663 418.84090053 -742.43217406 412.74082131 -731.61279297 406.50195312 C-717.50455154 398.39188947 -703.28472545 390.47895403 -689.05273438 382.58886719 C-681.80884084 378.56976806 -674.5830286 374.52055255 -667.375 370.4375 C-649.45888165 360.28875383 -631.47812464 350.25674211 -613.47387695 340.26538086 C-606.83070824 336.57742214 -600.19741835 332.87304731 -593.57983398 329.1394043 C-588.73129069 326.40560309 -583.86759906 323.69970704 -579 321 C-572.82571196 317.57499538 -566.66285788 314.13074734 -560.51147461 310.66479492 C-554.36747133 307.20391821 -548.21543711 303.75746448 -542.0625 300.3125 C-540.99773437 299.71598633 -539.93296875 299.11947266 -538.8359375 298.50488281 C-533.45401683 295.49042785 -528.06962852 292.48056189 -522.6796875 289.48046875 C-512.41000392 283.75752711 -502.19265049 277.96684682 -492.0625 272 C-482.662532 266.46833159 -473.12509386 261.24221337 -463.50244141 256.109375 C-455.89217377 252.04266317 -448.37335849 247.84387041 -440.8972168 243.53637695 C-434.16833571 239.65992152 -427.40464946 235.84942963 -420.625 232.0625 C-412.61177899 227.58551496 -404.61066443 223.08845029 -396.625 218.5625 C-387.17689996 213.21119023 -377.69209553 207.92787581 -368.19677734 202.66088867 C-352.63540403 194.02788888 -337.10906148 185.33340764 -321.625 176.5625 C-312.17533696 171.21063018 -302.68941655 165.92596517 -293.19238281 160.65869141 C-282.47556444 154.71389604 -271.7821488 148.72784997 -261.09277344 142.73388672 C-255.89629253 139.82060858 -250.69803234 136.91050875 -245.5 134 C-244.47003906 133.42314453 -243.44007813 132.84628906 -242.37890625 132.25195312 C-237.14663203 129.32148665 -231.9137405 126.39213212 -226.6796875 123.46484375 C-216.6485538 117.85327576 -206.62555228 112.22840998 -196.625 106.5625 C-186.965728 101.09107006 -177.26751003 95.6914758 -167.55957031 90.30712891 C-161.04762921 86.69490474 -154.54316115 83.07062877 -148.05712891 79.41210938 C-143.09760242 76.61502433 -138.12991696 73.83271139 -133.16064453 71.05297852 C-123.92889757 65.88887828 -114.70539299 60.71094553 -105.5 55.5 C-94.41558665 49.22610955 -83.30438454 43.00069621 -72.18798828 36.78369141 C-68.95656316 34.97569692 -65.72616642 33.16587824 -62.49609375 31.35546875 C-44.96630285 21.53121141 -44.96630285 21.53121141 -39.16796875 18.3203125 C-38.42691895 17.90982666 -37.68586914 17.49934082 -36.92236328 17.07641602 C-35.49331828 16.28608892 -34.06332938 15.49746574 -32.63232422 14.71069336 C-28.51334917 12.43576048 -24.44619753 10.08984818 -20.40234375 7.68359375 C-19.45198242 7.12365723 -18.50162109 6.5637207 -17.52246094 5.98681641 C-15.67079535 4.89323024 -13.82600207 3.78789983 -11.98925781 2.66943359 C-11.15104492 2.17652832 -10.31283203 1.68362305 -9.44921875 1.17578125 C-8.71018311 0.73145752 -7.97114746 0.28713379 -7.2097168 -0.1706543 C-4.31240029 -1.2580683 -2.93689328 -0.94069991 0 0 Z " fill="#EE3D2C" transform="translate(776,1)"/>
</svg>
