<?xml version="1.0" encoding="UTF-8"?>
<svg version="1.1" xmlns="http://www.w3.org/2000/svg" width="186" height="210">
<path d="M0 0 C61.38 0 122.76 0 186 0 C186 69.3 186 138.6 186 210 C124.62 210 63.24 210 0 210 C0 140.7 0 71.4 0 0 Z " fill="#FEFEFE" transform="translate(0,0)"/>
<path d="M0 0 C5.67128671 4.40236868 10.04407838 10.2062765 10.9921875 17.48828125 C11.35424625 26.28329176 8.38045268 32.23589059 2.55859375 38.67578125 C0.7109375 40.328125 0.7109375 40.328125 -2.6640625 41.578125 C-5.5837849 43.08166509 -5.5837849 43.08166509 -5.8828125 46.16796875 C-6.14022218 49.23185896 -6.27953074 52.25413318 -6.2890625 55.328125 C-5.53753906 55.45316406 -4.78601563 55.57820313 -4.01171875 55.70703125 C-1.50084418 56.27981325 0.10680537 56.93347299 2.2734375 58.265625 C3.41553032 58.9593211 4.56148983 59.64668511 5.7109375 60.328125 C6.35675781 60.74964844 7.00257812 61.17117187 7.66796875 61.60546875 C9.73423145 62.59733984 9.73423145 62.59733984 11.78125 61.4296875 C12.79832031 60.69878906 12.79832031 60.69878906 13.8359375 59.953125 C17.55585729 57.328125 17.55585729 57.328125 19.7109375 57.328125 C19.3809375 56.668125 19.0509375 56.008125 18.7109375 55.328125 C18.53416838 47.82806369 19.84790225 42.09805061 24.7109375 36.328125 C29.83027813 31.20878437 35.01986929 28.73078699 42.1484375 27.953125 C50.05547061 28.78544427 56.40489828 31.25029826 61.7109375 37.328125 C65.53075776 42.72695911 67.12872885 48.73299007 66.7109375 55.328125 C64.45388394 64.44927675 59.65970023 69.48974769 51.7109375 74.328125 C46.30569278 76.12987324 39.68603518 76.48510743 34.3203125 74.3984375 C32.99894741 73.66714766 31.68448256 72.9231811 30.37890625 72.1640625 C28.63056336 71.12464563 28.63056336 71.12464563 26.0859375 71.390625 C23.21658442 72.52326437 20.47007636 73.94855557 17.7109375 75.328125 C17.3809375 80.938125 17.0509375 86.548125 16.7109375 92.328125 C22.20573223 96.26283525 22.20573223 96.26283525 28.4609375 96.765625 C29.2034375 96.29125 29.9459375 95.816875 30.7109375 95.328125 C37.23884772 92.18505711 45.23151553 92.15007229 52.19140625 93.98046875 C57.99981077 96.59818297 62.15888923 100.90682151 64.78125 106.6875 C67.31515602 114.03811025 67.21233809 120.3831007 64.0859375 127.515625 C60.65852246 133.7046982 55.44697173 137.70220151 48.7421875 139.85546875 C41.4016728 141.56355006 36.11865137 139.95401133 29.7109375 136.328125 C24.59325787 133.13950421 21.58174851 128.99932695 19.7109375 123.328125 C19.01551983 119.33677822 18.7109375 115.37739544 18.7109375 111.328125 C17.30640107 110.43378343 15.88671881 109.56319308 14.4609375 108.703125 C13.67203125 108.21585937 12.883125 107.72859375 12.0703125 107.2265625 C9.78240444 106.06577069 9.78240444 106.06577069 7.734375 107.015625 C7.06664062 107.44875 6.39890625 107.881875 5.7109375 108.328125 C4.00386903 109.2055901 2.29548124 110.08049222 0.5859375 110.953125 C-0.28289062 111.39914063 -1.15171875 111.84515625 -2.046875 112.3046875 C-4.2890625 113.328125 -4.2890625 113.328125 -6.2890625 113.328125 C-6.2890625 117.618125 -6.2890625 121.908125 -6.2890625 126.328125 C-4.6390625 126.658125 -2.9890625 126.988125 -1.2890625 127.328125 C4.8921241 131.1956831 8.81581799 136.3043383 10.7109375 143.328125 C11.86228363 150.15224945 10.21423936 156.41447339 6.7109375 162.328125 C2.12157548 167.52109831 -2.56384412 170.90531049 -9.55859375 171.69921875 C-17.1844295 171.84215062 -22.55998773 171.63085002 -28.2890625 166.328125 C-33.82533554 160.99046265 -36.30471487 156.23053301 -36.6015625 148.453125 C-36.44026187 141.30213035 -34.32492229 135.50786649 -29.2890625 130.328125 C-23.9917652 126.328125 -23.9917652 126.328125 -20.2890625 126.328125 C-20.06502272 121.82756113 -20.1176746 117.69809722 -21.2890625 113.328125 C-23.60837057 111.4141329 -25.77107934 110.60833501 -28.578125 109.5546875 C-34.40899073 106.91651482 -38.13416116 101.59248017 -40.9765625 96.01953125 C-44.00672237 87.49720661 -43.57584703 77.97974144 -39.8515625 69.765625 C-35.99432972 63.07914836 -30.71877505 58.12008906 -23.2265625 55.890625 C-22.2571875 55.705 -21.2878125 55.519375 -20.2890625 55.328125 C-20.2890625 51.038125 -20.2890625 46.748125 -20.2890625 42.328125 C-21.6090625 41.998125 -22.9290625 41.668125 -24.2890625 41.328125 C-30.11206848 38.23078139 -33.90720815 33.67357894 -35.91015625 27.375 C-37.18552435 20.48538261 -36.88519653 13.45298931 -33.2890625 7.328125 C-25.38251557 -2.8461912 -11.66897287 -6.99153649 0 0 Z " fill="#040404" transform="translate(81.2890625,20.671875)"/>
<path d="M0 0 C4.48741845 2.48615324 7.11474899 5.40674698 8.75 10.3125 C9.31384129 16.00512838 9.05719906 20.46194138 5.75 25.3125 C1.37872462 29.61383498 -1.80904112 31.48757537 -7.9375 31.6875 C-12.96212373 31.63930217 -16.110616 31.12086156 -19.9140625 27.78125 C-24.30857192 22.94985953 -24.78998347 18.24569622 -24.6015625 11.93359375 C-23.92774175 6.90988574 -21.32352278 4.28128885 -17.6875 1 C-12.14442071 -2.83751643 -5.95940449 -2.76249031 0 0 Z " fill="#FCFCFC" transform="translate(76.25,89.6875)"/>
<path d="M0 0 C2.3992664 2.46781687 3.4093099 3.90378258 4.1875 7.25 C3.99916661 12.52333506 2.98994272 15.55318069 -0.8125 19.25 C-4.97670421 21.72601332 -8.18115432 21.40783642 -12.8125 20.25 C-15.76742969 18.41137708 -17.41262663 16.92251431 -19.1875 13.9375 C-20.29823543 9.16133764 -19.64367971 5.58582453 -17.0625 1.4375 C-11.84296363 -3.63704925 -6.20806408 -3.86279543 0 0 Z " fill="#F8F8F8" transform="translate(131.8125,127.75)"/>
<path d="M0 0 C3.01598124 3.4468357 3.58551645 5.38296224 3.80078125 9.8515625 C3.55116736 12.90239898 2.55574815 14.6555201 0.625 17 C0.233125 17.5775 -0.15875 18.155 -0.5625 18.75 C-3.56689287 20.82199508 -6.81880865 21.10776337 -10.375 21 C-13.94563124 19.78733279 -15.80345842 18.66679851 -18.25 15.8125 C-19.72126798 12.13433006 -20.05663369 8.87016464 -19.375 5 C-17.65207034 1.55414067 -16.33621291 -0.40248927 -13.0625 -2.4375 C-7.91949855 -3.51394216 -4.49139369 -2.66156663 0 0 Z " fill="#F9F9F9" transform="translate(76.375,32)"/>
<path d="M0 0 C3.09133781 2.06089188 4.5494329 3.5523199 5.66015625 7.12109375 C6.38001272 11.26551014 6.2316561 13.49962282 4.4375 17.375 C1.70254148 20.32033994 -0.18452524 21.72817508 -4 23 C-8.5357202 23 -10.39366337 22.51406801 -13.875 19.5625 C-16.85275787 15.97167433 -17.34507394 13.80938129 -17.28515625 9.1015625 C-16.81849096 5.66230327 -15.21874413 3.58853482 -13 1 C-8.66361114 -1.71819763 -4.81351576 -1.29561654 0 0 Z " fill="#FAFAFA" transform="translate(74,158)"/>
<path d="M0 0 C3.36830836 2.12349875 5.91618162 4.09825382 7 8 C6.91935219 13.080812 6.8241697 15.0316006 3.5 18.9375 C2.2625 19.9584375 2.2625 19.9584375 1 21 C0.67 21.33 0.34 21.66 0 22 C-4.78573887 22.54061124 -8.74960781 22.70334561 -13 20.3125 C-16.1805367 16.63500444 -17.04978046 14.39385279 -16.875 9.5 C-15.73950226 4.95800904 -13.90255712 2.49486631 -10.25 -0.375 C-6.72209821 -1.35497272 -3.47285513 -0.95969555 0 0 Z " fill="#F8F8F8" transform="translate(129,62)"/>
</svg>
