<?xml version="1.0" encoding="UTF-8"?>
<svg version="1.1" xmlns="http://www.w3.org/2000/svg" width="600" height="600">
<path d="M0 0 C198 0 396 0 600 0 C600 198 600 396 600 600 C402 600 204 600 0 600 C0 402 0 204 0 0 Z " fill="#203D3D" transform="translate(0,0)"/>
<path d="M0 0 C2.48517428 -0.00079212 4.97034842 -0.0028932 7.45552063 -0.00619507 C13.47141918 -0.01077349 19.48715036 -0.00158713 25.5030181 0.01409289 C32.52366612 0.03174366 39.54429009 0.03305449 46.56495682 0.03370848 C59.09801966 0.03539157 71.63102428 0.05114656 84.1640625 0.07519531 C96.29915856 0.09846324 108.43421775 0.11262288 120.56933594 0.11621094 C121.31730712 0.1164337 122.06527831 0.11665647 122.83591529 0.11688599 C124.34294951 0.11732862 125.84998373 0.11777065 127.35701795 0.11821206 C128.10059633 0.11843163 128.8441747 0.11865119 129.61028576 0.11887741 C130.7230117 0.11920139 130.7230117 0.11920139 131.85821695 0.11953191 C143.46263733 0.12324079 155.06705184 0.13459838 166.67146572 0.14700781 C170.86269116 0.15142683 175.05391606 0.15487174 179.2451429 0.15762994 C186.51753831 0.16249769 193.78990261 0.17266446 201.06228447 0.18845749 C203.47125241 0.19295931 205.8802241 0.19581411 208.28919601 0.19686508 C211.58822598 0.19862662 214.88718732 0.20655038 218.186203 0.21600342 C219.12931798 0.21513694 220.07243295 0.21427045 221.04412717 0.21337771 C233.03483041 0.26458604 243.76008431 1.58887017 255.17114258 5.35644531 C255.81631836 5.56930176 256.46149414 5.7821582 257.1262207 6.00146484 C286.94618597 16.02161446 312.00210739 37.04014647 326.42114258 65.10644531 C339.43379209 91.59821721 343.25290353 123.94469775 334.17114258 152.35644531 C331.8876767 158.86648206 329.15541001 165.14035362 326.17114258 171.35644531 C325.41124023 172.94585937 325.41124023 172.94585937 324.63598633 174.56738281 C309.68170284 203.64284207 283.18177026 222.54718382 252.67114258 232.60644531 C237.78731193 236.81985551 223.08547587 236.63848482 207.74707031 236.59936523 C205.29322255 236.60043974 202.83937504 236.60238092 200.38552856 236.6051178 C194.44206204 236.60944251 188.49864647 236.60455931 182.55518966 236.5952675 C175.6184882 236.58481778 168.68179847 236.58495542 161.74509061 236.58544008 C149.36015932 236.58593934 136.97525397 236.57681581 124.59033203 236.56225586 C112.60074389 236.54816818 100.61117856 236.54108535 88.62158203 236.54174805 C87.51352075 236.54180798 87.51352075 236.54180798 86.3830744 236.54186913 C85.27683776 236.54192966 85.27683776 236.54192966 84.1482529 236.54199141 C70.45641435 236.54268309 56.76458539 236.53678113 43.07274995 236.5278382 C38.24913175 236.52483519 33.42551532 236.52376023 28.60189629 236.52330589 C22.09865445 236.52254838 15.59543164 236.51615973 9.09219742 236.50613976 C6.7126753 236.50323241 4.33315045 236.50198579 1.95362663 236.50256729 C-37.13292956 236.50850197 -37.13292956 236.50850197 -54.82885742 228.35644531 C-55.70864258 227.95232422 -55.70864258 227.95232422 -56.60620117 227.54003906 C-86.97524878 213.42484792 -109.87931401 190.03919851 -121.58374023 158.31005859 C-126.22793957 144.95877104 -128.222942 132.4590383 -128.20385742 118.29394531 C-128.2033136 117.61113495 -128.20276978 116.92832458 -128.20220947 116.224823 C-128.16184834 105.18217877 -127.27399022 94.89897118 -123.82885742 84.35644531 C-123.50739746 83.33623291 -123.50739746 83.33623291 -123.17944336 82.29541016 C-113.0897833 50.96165507 -90.11202153 26.58558103 -61.27124023 11.46191406 C-54.37721657 7.98551989 -47.33263556 5.23453224 -39.82885742 3.35644531 C-38.43618416 2.98606581 -38.43618416 2.98606581 -37.01537609 2.60820389 C-24.72994988 -0.2744807 -12.561778 -0.05178219 0 0 Z " fill="#FEFEFE" transform="translate(194.828857421875,181.6435546875)"/>
<path d="M0 0 C198 0 396 0 600 0 C600 198 600 396 600 600 C402 600 204 600 0 600 C0 402 0 204 0 0 Z M30 30 C30 208.2 30 386.4 30 570 C208.2 570 386.4 570 570 570 C570 391.8 570 213.6 570 30 C391.8 30 213.6 30 30 30 Z " fill="#FFFFFF" transform="translate(0,0)"/>
<path d="M0 0 C9.53750828 6.13222438 16.35114722 14.23099364 20 25 C20.54751035 28.29340826 20.62194846 31.47886301 20.5625 34.8125 C20.54606445 36.12516846 20.54606445 36.12516846 20.52929688 37.46435547 C19.97073487 54.24914363 9.74494554 64.36448047 -1.4375 75.75 C-2.14100586 76.47147217 -2.84451172 77.19294434 -3.56933594 77.9362793 C-9.20804268 83.56521923 -15.17560174 88.77068414 -22.8125 91.375 C-26.52940745 93.269894 -27.06998951 94.86890439 -28.6796875 98.58203125 C-31.35314089 103.47808938 -35.50264678 107.33687109 -39.36572266 111.31445312 C-41.08463593 113.08729108 -42.78180106 114.87964659 -44.48046875 116.671875 C-50.72896574 123.1819012 -56.67946369 129.18939418 -65 133 C-66.04994141 133.50080078 -66.04994141 133.50080078 -67.12109375 134.01171875 C-75.90799818 137.5748488 -86.6912203 137.23470417 -95.5625 134.09765625 C-107.82826558 128.57413041 -116.14842164 119.76749187 -121.0859375 107.24609375 C-123.9798156 96.9691164 -122.349934 85.98450291 -117.8046875 76.5078125 C-112.37722143 66.93160274 -103.97669714 59.44825419 -96 52 C-94.97628296 51.039729 -94.97628296 51.039729 -93.93188477 50.06005859 C-90.08728386 46.56130228 -86.68382634 44.09412267 -81.8125 42.125 C-76.54974391 39.63834775 -74.62371694 37.59964836 -72.23046875 32.3984375 C-69.75042884 27.56432795 -65.74448036 23.87553717 -62 20 C-61.43925781 19.40815918 -60.87851562 18.81631836 -60.30078125 18.20654297 C-43.96788836 1.0073799 -23.86954751 -12.22670348 0 0 Z " fill="#244040" transform="translate(444,233)"/>
<path d="M0 0 C11.83662772 5.09535306 17.18212825 15.05330345 22.39208984 26.31030273 C27.17622021 36.11992366 33.74094179 42.79445464 41.5625 50.25 C43.95295156 52.56384685 46.33573151 54.88553311 48.71875 57.20703125 C49.28524261 57.75638336 49.85173523 58.30573547 50.43539429 58.87173462 C54.54356592 62.87325582 58.4280015 66.99642543 62.0625 71.4375 C62.83335937 72.3759375 63.60421875 73.314375 64.3984375 74.28125 C74.85643094 87.90468973 83.83609466 103.86447111 88.9375 120.3125 C90.745089 125.64013073 93.85066362 128.70755658 98.0390625 132.3671875 C100.25237176 134.63177034 100.96822389 136.50503201 102.0625 139.4375 C104.57656311 141.73327243 104.57656311 141.73327243 107.0625 143.4375 C106.7325 144.4275 106.4025 145.4175 106.0625 146.4375 C99.3125 146.5625 99.3125 146.5625 97.0625 145.4375 C95.186541 145.54717145 93.31161794 145.67490653 91.4375 145.8125 C86.63684675 145.87006179 84.17742906 145.3931918 80.5625 142.1875 C78.7339562 140.31083663 77.0067046 138.37348857 75.28515625 136.3984375 C72.47996118 133.92355538 69.4367504 132.66150483 66 131.3125 C62.4845575 129.89761602 59.23690531 128.55377021 56.0625 126.4375 C56.11470703 127.54158203 56.11470703 127.54158203 56.16796875 128.66796875 C56.32375274 134.28361081 56.35757738 137.70978028 53.0625 142.4375 C53.30754848 144.64293633 53.48669664 145.86169664 55.0625 147.4375 C57.03759873 147.6469361 59.01821682 147.80553822 61 147.9375 C66.84241747 148.32745873 66.84241747 148.32745873 69.0625 149.4375 C69.0625 150.0975 69.0625 150.7575 69.0625 151.4375 C65.32729817 153.92763455 63.4971253 153.65923126 59.0625 153.4375 C57.969375 153.14875 56.87625 152.86 55.75 152.5625 C50.82693103 152.39561631 48.46359384 154.34719842 44.44140625 157 C41.67171781 158.67363768 39.28828898 159.26772163 36.0625 159.4375 C37.9375 154.6875 37.9375 154.6875 39.0625 152.4375 C38.010625 152.6540625 38.010625 152.6540625 36.9375 152.875 C35.98875 153.060625 35.04 153.24625 34.0625 153.4375 C33.093125 153.664375 32.12375 153.89125 31.125 154.125 C27.5787658 154.48686063 25.33714193 153.7629503 22.0625 152.4375 C22.7225 151.4475 23.3825 150.4575 24.0625 149.4375 C19.25413197 149.09404514 16.2264037 149.09318302 12 151.5 C8.03666657 153.73912735 5.53670087 153.31479429 1.0625 152.4375 C0.0725 153.0975 -0.9175 153.7575 -1.9375 154.4375 C-2.5975 152.7875 -3.2575 151.1375 -3.9375 149.4375 C-5.9175 149.4375 -7.8975 149.4375 -9.9375 149.4375 C-9.3125 147.5625 -9.3125 147.5625 -7.9375 145.4375 C-2.71145794 143.05080363 2.14366424 143.26592125 7.75 143.4375 C9.44114894 143.48855355 11.13259997 143.53060774 12.82421875 143.5625 C13.56631592 143.58570313 14.30841309 143.60890625 15.07299805 143.6328125 C17.38332964 143.5636022 17.38332964 143.5636022 20.0625 141.4375 C19.65523596 136.84556331 19.65523596 136.84556331 18.01953125 132.6171875 C16.70172873 129.61582504 17.04179656 127.07552203 17.125 123.8125 C16.87776235 119.45212697 16.68038758 117.18425183 13.87109375 113.7890625 C11.95638223 112.18592434 10.01751981 110.6112998 8.05859375 109.0625 C-5.17800562 97.46537513 -8.65542 80.17173797 -11.56054688 63.66796875 C-13.10709452 55.36633695 -15.45087825 48.11450856 -18.9375 40.4375 C-19.2675 39.4475 -19.5975 38.4575 -19.9375 37.4375 C-21.4225 37.9325 -21.4225 37.9325 -22.9375 38.4375 C-28.23552777 38.82362745 -33.13930597 38.99653682 -37.9375 36.4375 C-38.5975 38.4175 -39.2575 40.3975 -39.9375 42.4375 C-42.44244897 40.16739 -43.79632634 38.30626097 -44.34375 34.9375 C-44.55364952 28.6405145 -43.77790564 23.54629649 -39.9375 18.4375 C-37.94084402 16.76682867 -35.94098966 15.09997014 -33.9375 13.4375 C-32.86847061 11.13497517 -31.86574183 8.8002974 -30.9375 6.4375 C-24.0563998 -4.00278995 -10.92232046 -3.5390759 0 0 Z " fill="#223F3F" transform="translate(194.9375,221.5625)"/>
<path d="M0 0 C4.53756232 3.44624986 8.77639758 8.04214445 10.8515625 13.40625 C11.1875 16.359375 11.1875 16.359375 11.2265625 19.65625 C11.25492187 20.73390625 11.28328125 21.8115625 11.3125 22.921875 C10.07914663 32.24519031 4.16998459 37.6680812 -2.3125 43.98193359 C-3.78795397 45.42040259 -5.24630122 46.87471959 -6.703125 48.33203125 C-13.86739745 55.40625 -13.86739745 55.40625 -16.1484375 55.40625 C-16.36757813 54.71660156 -16.58671875 54.02695312 -16.8125 53.31640625 C-21.10333235 40.60089087 -27.42216925 32.23666715 -39.25390625 25.875 C-41.19580395 25.22120438 -41.19580395 25.22120438 -43.26171875 26.0625 C-45.53886984 27.6843219 -46.20883644 28.78280941 -47.1484375 31.40625 C-47.59908382 33.99157701 -47.59908382 33.99157701 -47.7734375 36.65625 C-47.84820312 37.54828125 -47.92296875 38.4403125 -48 39.359375 C-48.04898438 40.03484375 -48.09796875 40.7103125 -48.1484375 41.40625 C-47.3028125 41.57125 -46.4571875 41.73625 -45.5859375 41.90625 C-40.28339838 44.22008525 -37.02628638 48.43402562 -33.96875 53.2734375 C-32.86949934 56.13148921 -32.80966951 58.59826876 -32.7734375 61.65625 C-32.74507813 62.73390625 -32.71671875 63.8115625 -32.6875 64.921875 C-33.95200319 74.48066181 -40.38816391 80.24457098 -46.94726562 86.67163086 C-48.5252687 88.22054744 -50.08361732 89.78743096 -51.640625 91.35742188 C-58.43788369 98.11268722 -63.45670999 102.81292091 -73.4609375 102.96875 C-80.6123738 102.7934697 -85.16054493 101.62275431 -90.1484375 96.40625 C-94.69266918 90.89636909 -97.00650679 85.97268841 -96.45703125 78.7734375 C-96.35519531 77.99226563 -96.25335938 77.21109375 -96.1484375 76.40625 C-96.09816406 75.72820312 -96.04789062 75.05015625 -95.99609375 74.3515625 C-94.98430523 67.44922441 -89.85511286 63.1449851 -85.1484375 58.40625 C-83.93565451 57.15677722 -82.72344937 55.90674339 -81.51171875 54.65625 C-80.24624826 53.36315625 -78.97932442 52.07148317 -77.7109375 50.78125 C-76.78812988 49.83838135 -76.78812988 49.83838135 -75.84667969 48.87646484 C-75.26692383 48.29590332 -74.68716797 47.7153418 -74.08984375 47.1171875 C-73.57107666 46.59431152 -73.05230957 46.07143555 -72.51782227 45.53271484 C-71.1484375 44.40625 -71.1484375 44.40625 -69.1484375 44.40625 C-68.98988281 44.95152344 -68.83132813 45.49679687 -68.66796875 46.05859375 C-66.10269921 54.34965829 -62.78189846 61.60197166 -56.1484375 67.40625 C-55.3646875 68.1075 -54.5809375 68.80875 -53.7734375 69.53125 C-50.60735174 71.79273983 -47.82378756 73.11307128 -44.1484375 74.40625 C-41.07333884 73.67948128 -41.07333884 73.67948128 -39.5234375 71.40625 C-37.71051761 67.45078842 -37.42053331 63.71286988 -37.1484375 59.40625 C-37.8496875 59.179375 -38.5509375 58.9525 -39.2734375 58.71875 C-44.3819293 56.38661244 -48.81672473 52.80785047 -51.44921875 47.75390625 C-53.19915808 41.87841163 -53.76413357 34.2703306 -51.36474609 28.53198242 C-47.62228292 21.96223265 -41.99525601 16.84863559 -36.6484375 11.59375 C-35.7012491 10.64445241 -34.75463051 9.69458591 -33.80859375 8.74414062 C-24.40461834 -0.58647044 -13.10728105 -7.55151995 0 0 Z " fill="#FBFBFB" transform="translate(436.1484375,248.59375)"/>
<path d="M0 0 C2.09632021 2.51558425 3.54856032 5.05742423 4.9375 8 C6.52018751 11.27536874 8.20471732 13.60404342 11 16 C9.25 20.875 9.25 20.875 7 22 C4.6670134 22.04022391 2.33293334 22.04320247 0 22 C-0.33 21.34 -0.66 20.68 -1 20 C-2.89533342 19.53476937 -2.89533342 19.53476937 -5.0625 19.375 C-6.361875 19.25125 -7.66125 19.1275 -9 19 C-9.33 17.68 -9.66 16.36 -10 15 C-9.236875 14.79375 -8.47375 14.5875 -7.6875 14.375 C-4.07241179 12.52541999 -3.48064768 10.73687273 -2 7 C-1.25533323 4.67757052 -0.61425981 2.36253772 0 0 Z " fill="#F3F4F4" transform="translate(230,347)"/>
<path d="M0 0 C6.0546875 -0.1953125 6.0546875 -0.1953125 8 0 C8.66 0.66 9.32 1.32 10 2 C9.01 2.33 8.02 2.66 7 3 C8.32 3.66 9.64 4.32 11 5 C8.69 5.33 6.38 5.66 4 6 C4.33 4.35 4.66 2.7 5 1 C3.35 1 1.7 1 0 1 C0 0.67 0 0.34 0 0 Z " fill="#AFB9B9" transform="translate(211,370)"/>
<path d="M0 0 C2.64 0 5.28 0 8 0 C8 1.32 8 2.64 8 4 C7.01 4.33 6.02 4.66 5 5 C4.34 4.34 3.68 3.68 3 3 C3.66 2.67 4.32 2.34 5 2 C3.35 1.67 1.7 1.34 0 1 C0 0.67 0 0.34 0 0 Z " fill="#697D7D" transform="translate(230,369)"/>
</svg>
